M48
;Layer_Color=9474304
;FILE_FORMAT=4:4
METRIC,LZ
;TYPE=PLATED
T1F00S00C0.4000
T2F00S00C0.9000
%
T01
X0004318Y0004699
X001397
Y0000508
X0001016Y0011176
X0014859Y0022225
X0013589Y0024511
X0012319Y0026162
X001143Y0029845
X0009144Y0030861
X0005969Y0029083
X0005715Y0026289
X0005969Y0025273
X0005715Y0022098
X0003302Y0022225
X0002794Y0023114
Y0024384
X0004064Y0020574
X0003302Y0019431
X0009144Y0022606
X0011811Y0021463
X0013208Y0016764
X001016
X0013335Y0040767
T02
X0006604Y0002286
Y0004572
X0009144
Y0002286
X0011684
Y0004572
Y00127
X0009144
X0006858
X0016764Y001778
Y002032
Y002286
Y00254
Y002794
Y003048
Y003302
Y003556
Y00381
Y004064
Y004318
Y004572
X0011684Y0043688
Y0041402
X0009144
Y0043688
X0006604
Y0041402
X0001524Y004064
Y00381
Y003556
Y003302
Y003048
Y002794
Y00254
Y002286
Y002032
Y001778
Y004318
Y004572
M30
