G04 Layer_Color=65535*
%FSLAX44Y44*%
%MOMM*%
G71*
G01*
G75*
%ADD15C,0.2540*%
%ADD20C,0.2000*%
%ADD21C,0.2500*%
%ADD22C,0.1270*%
%ADD23C,0.2032*%
%ADD24C,0.1000*%
%ADD25C,0.0762*%
G36*
X175749Y52832D02*
X148082D01*
Y65344D01*
X175749D01*
Y52832D01*
D02*
G37*
G36*
X35546D02*
X7112D01*
Y65344D01*
X35546D01*
Y52832D01*
D02*
G37*
G36*
X64725Y109243D02*
X60629D01*
X60085Y106490D01*
X60096Y106502D01*
X60129Y106524D01*
X60174Y106546D01*
X60240Y106590D01*
X60329Y106635D01*
X60429Y106690D01*
X60540Y106757D01*
X60673Y106812D01*
X60806Y106868D01*
X60962Y106934D01*
X61284Y107034D01*
X61461Y107079D01*
X61639Y107112D01*
X61828Y107123D01*
X62016Y107134D01*
X62072D01*
X62150Y107123D01*
X62238D01*
X62349Y107101D01*
X62483Y107090D01*
X62638Y107057D01*
X62793Y107023D01*
X62971Y106968D01*
X63148Y106912D01*
X63337Y106834D01*
X63526Y106746D01*
X63715Y106635D01*
X63903Y106513D01*
X64092Y106368D01*
X64270Y106202D01*
X64281Y106191D01*
X64314Y106157D01*
X64358Y106102D01*
X64414Y106035D01*
X64492Y105947D01*
X64569Y105824D01*
X64647Y105702D01*
X64736Y105558D01*
X64825Y105392D01*
X64902Y105203D01*
X64991Y105014D01*
X65058Y104792D01*
X65113Y104570D01*
X65158Y104326D01*
X65191Y104071D01*
X65202Y103804D01*
Y103793D01*
Y103738D01*
Y103671D01*
X65191Y103571D01*
X65180Y103449D01*
X65158Y103316D01*
X65135Y103160D01*
X65102Y102983D01*
X65058Y102805D01*
X65002Y102605D01*
X64936Y102406D01*
X64858Y102206D01*
X64769Y102006D01*
X64658Y101795D01*
X64536Y101595D01*
X64392Y101407D01*
X64381Y101396D01*
X64347Y101351D01*
X64292Y101296D01*
X64214Y101218D01*
X64114Y101118D01*
X63992Y101018D01*
X63848Y100896D01*
X63681Y100785D01*
X63504Y100674D01*
X63304Y100552D01*
X63082Y100452D01*
X62838Y100363D01*
X62582Y100274D01*
X62305Y100219D01*
X62016Y100175D01*
X61705Y100163D01*
X61572D01*
X61472Y100175D01*
X61350Y100186D01*
X61217Y100208D01*
X61062Y100230D01*
X60895Y100263D01*
X60718Y100297D01*
X60529Y100352D01*
X60340Y100419D01*
X60152Y100497D01*
X59963Y100585D01*
X59774Y100685D01*
X59597Y100807D01*
X59419Y100941D01*
X59408Y100952D01*
X59386Y100974D01*
X59341Y101018D01*
X59286Y101085D01*
X59208Y101163D01*
X59130Y101251D01*
X59053Y101362D01*
X58964Y101496D01*
X58875Y101629D01*
X58786Y101784D01*
X58709Y101962D01*
X58631Y102139D01*
X58553Y102339D01*
X58498Y102550D01*
X58453Y102783D01*
X58420Y103016D01*
X59741Y103116D01*
Y103105D01*
X59752Y103072D01*
X59763Y103027D01*
X59774Y102961D01*
X59785Y102883D01*
X59819Y102783D01*
X59874Y102572D01*
X59963Y102339D01*
X60085Y102095D01*
X60229Y101873D01*
X60318Y101773D01*
X60407Y101673D01*
X60418D01*
X60429Y101651D01*
X60462Y101629D01*
X60507Y101595D01*
X60618Y101518D01*
X60773Y101440D01*
X60962Y101351D01*
X61184Y101273D01*
X61428Y101218D01*
X61561Y101207D01*
X61705Y101196D01*
X61794D01*
X61861Y101207D01*
X61939Y101218D01*
X62027Y101229D01*
X62238Y101285D01*
X62483Y101362D01*
X62605Y101418D01*
X62738Y101484D01*
X62871Y101562D01*
X62993Y101651D01*
X63115Y101751D01*
X63237Y101873D01*
X63248Y101884D01*
X63260Y101906D01*
X63293Y101939D01*
X63337Y101995D01*
X63382Y102073D01*
X63437Y102150D01*
X63493Y102250D01*
X63559Y102361D01*
X63615Y102483D01*
X63670Y102617D01*
X63726Y102772D01*
X63770Y102927D01*
X63815Y103105D01*
X63848Y103294D01*
X63859Y103482D01*
X63870Y103693D01*
Y103704D01*
Y103738D01*
Y103793D01*
X63859Y103871D01*
X63848Y103960D01*
X63837Y104071D01*
X63815Y104182D01*
X63792Y104315D01*
X63726Y104581D01*
X63615Y104870D01*
X63548Y105003D01*
X63459Y105136D01*
X63370Y105269D01*
X63260Y105392D01*
X63248Y105403D01*
X63237Y105414D01*
X63193Y105447D01*
X63148Y105491D01*
X63093Y105536D01*
X63015Y105591D01*
X62938Y105647D01*
X62838Y105713D01*
X62727Y105769D01*
X62616Y105824D01*
X62338Y105924D01*
X62194Y105969D01*
X62027Y106002D01*
X61861Y106013D01*
X61683Y106024D01*
X61583D01*
X61461Y106013D01*
X61317Y105991D01*
X61139Y105958D01*
X60951Y105902D01*
X60762Y105836D01*
X60573Y105736D01*
X60551Y105724D01*
X60496Y105691D01*
X60407Y105625D01*
X60296Y105547D01*
X60185Y105436D01*
X60052Y105314D01*
X59930Y105169D01*
X59819Y105014D01*
X58642Y105181D01*
X59630Y110442D01*
X64725D01*
Y109243D01*
D02*
G37*
G36*
X39100Y140309D02*
X5842D01*
Y152476D01*
X39100D01*
Y140309D01*
D02*
G37*
G36*
X71207Y100330D02*
X69808D01*
X65835Y110575D01*
X67311D01*
X69975Y103127D01*
Y103116D01*
X69986Y103083D01*
X70008Y103038D01*
X70030Y102972D01*
X70053Y102894D01*
X70086Y102805D01*
X70119Y102705D01*
X70164Y102583D01*
X70241Y102328D01*
X70330Y102051D01*
X70419Y101751D01*
X70508Y101451D01*
Y101462D01*
X70519Y101484D01*
X70530Y101540D01*
X70552Y101595D01*
X70574Y101673D01*
X70596Y101762D01*
X70630Y101862D01*
X70663Y101973D01*
X70741Y102228D01*
X70841Y102517D01*
X70952Y102816D01*
X71063Y103127D01*
X73826Y110575D01*
X75203D01*
X71207Y100330D01*
D02*
G37*
G36*
X135890Y113030D02*
X46990D01*
Y158750D01*
X135890D01*
Y113030D01*
D02*
G37*
G36*
X157480Y379202D02*
Y353060D01*
X25400D01*
Y379202D01*
Y402590D01*
X157480D01*
Y379202D01*
D02*
G37*
G36*
X128859Y100330D02*
X127461D01*
X123487Y110575D01*
X124963D01*
X127627Y103127D01*
Y103116D01*
X127638Y103083D01*
X127661Y103038D01*
X127683Y102972D01*
X127705Y102894D01*
X127738Y102805D01*
X127772Y102705D01*
X127816Y102583D01*
X127894Y102328D01*
X127982Y102051D01*
X128071Y101751D01*
X128160Y101451D01*
Y101462D01*
X128171Y101484D01*
X128182Y101540D01*
X128204Y101595D01*
X128227Y101673D01*
X128249Y101762D01*
X128282Y101862D01*
X128315Y101973D01*
X128393Y102228D01*
X128493Y102517D01*
X128604Y102816D01*
X128715Y103127D01*
X131479Y110575D01*
X132855D01*
X128859Y100330D01*
D02*
G37*
G36*
X107559Y110597D02*
X107636Y110586D01*
X107847Y110564D01*
X108080Y110520D01*
X108347Y110453D01*
X108613Y110364D01*
X108880Y110242D01*
X108891D01*
X108913Y110231D01*
X108946Y110209D01*
X109002Y110176D01*
X109124Y110098D01*
X109279Y109987D01*
X109457Y109843D01*
X109634Y109676D01*
X109812Y109487D01*
X109967Y109265D01*
Y109254D01*
X109979Y109243D01*
X110001Y109199D01*
X110023Y109154D01*
X110056Y109099D01*
X110090Y109032D01*
X110156Y108866D01*
X110223Y108666D01*
X110289Y108444D01*
X110334Y108200D01*
X110345Y107944D01*
Y107933D01*
Y107911D01*
Y107878D01*
Y107833D01*
X110323Y107700D01*
X110300Y107545D01*
X110256Y107356D01*
X110189Y107156D01*
X110101Y106945D01*
X109979Y106735D01*
Y106723D01*
X109967Y106712D01*
X109912Y106646D01*
X109834Y106546D01*
X109712Y106424D01*
X109568Y106279D01*
X109379Y106135D01*
X109168Y106002D01*
X108924Y105869D01*
X108935D01*
X108968Y105858D01*
X109013Y105847D01*
X109079Y105824D01*
X109146Y105802D01*
X109235Y105769D01*
X109446Y105680D01*
X109668Y105558D01*
X109901Y105414D01*
X110134Y105225D01*
X110334Y104992D01*
X110345Y104981D01*
X110356Y104959D01*
X110378Y104925D01*
X110411Y104870D01*
X110456Y104814D01*
X110500Y104737D01*
X110545Y104648D01*
X110589Y104537D01*
X110633Y104426D01*
X110678Y104304D01*
X110767Y104026D01*
X110822Y103704D01*
X110844Y103527D01*
Y103349D01*
Y103338D01*
Y103294D01*
X110833Y103216D01*
Y103127D01*
X110811Y103005D01*
X110789Y102872D01*
X110767Y102728D01*
X110722Y102561D01*
X110667Y102383D01*
X110600Y102206D01*
X110522Y102017D01*
X110422Y101828D01*
X110311Y101629D01*
X110178Y101440D01*
X110034Y101251D01*
X109856Y101074D01*
X109845Y101063D01*
X109812Y101029D01*
X109756Y100985D01*
X109679Y100929D01*
X109590Y100863D01*
X109468Y100785D01*
X109335Y100696D01*
X109179Y100619D01*
X109013Y100530D01*
X108824Y100441D01*
X108624Y100363D01*
X108402Y100297D01*
X108169Y100241D01*
X107925Y100197D01*
X107670Y100163D01*
X107392Y100152D01*
X107337D01*
X107259Y100163D01*
X107170D01*
X107048Y100175D01*
X106915Y100197D01*
X106771Y100219D01*
X106604Y100252D01*
X106427Y100297D01*
X106249Y100352D01*
X106060Y100408D01*
X105872Y100485D01*
X105683Y100585D01*
X105505Y100685D01*
X105317Y100807D01*
X105150Y100952D01*
X105139Y100963D01*
X105117Y100985D01*
X105072Y101029D01*
X105006Y101096D01*
X104939Y101174D01*
X104861Y101273D01*
X104784Y101384D01*
X104695Y101518D01*
X104606Y101651D01*
X104517Y101817D01*
X104429Y101984D01*
X104351Y102173D01*
X104284Y102372D01*
X104218Y102583D01*
X104173Y102805D01*
X104140Y103038D01*
X105394Y103205D01*
Y103194D01*
X105405Y103160D01*
X105416Y103105D01*
X105439Y103027D01*
X105461Y102938D01*
X105483Y102839D01*
X105561Y102605D01*
X105661Y102350D01*
X105783Y102095D01*
X105938Y101862D01*
X106027Y101762D01*
X106116Y101662D01*
X106127D01*
X106138Y101640D01*
X106171Y101618D01*
X106205Y101584D01*
X106316Y101518D01*
X106471Y101429D01*
X106660Y101340D01*
X106871Y101273D01*
X107126Y101218D01*
X107392Y101196D01*
X107481D01*
X107548Y101207D01*
X107614Y101218D01*
X107714Y101229D01*
X107914Y101273D01*
X108158Y101340D01*
X108413Y101451D01*
X108535Y101529D01*
X108658Y101607D01*
X108780Y101695D01*
X108902Y101806D01*
X108913Y101817D01*
X108924Y101840D01*
X108957Y101873D01*
X109002Y101917D01*
X109046Y101973D01*
X109090Y102051D01*
X109146Y102128D01*
X109213Y102228D01*
X109324Y102450D01*
X109412Y102705D01*
X109490Y103005D01*
X109501Y103160D01*
X109512Y103327D01*
Y103338D01*
Y103360D01*
Y103416D01*
X109501Y103471D01*
X109490Y103549D01*
X109479Y103627D01*
X109446Y103826D01*
X109368Y104059D01*
X109268Y104293D01*
X109201Y104415D01*
X109124Y104526D01*
X109035Y104637D01*
X108935Y104748D01*
X108924Y104759D01*
X108913Y104770D01*
X108880Y104803D01*
X108835Y104837D01*
X108780Y104881D01*
X108713Y104925D01*
X108547Y105036D01*
X108336Y105136D01*
X108091Y105225D01*
X107814Y105292D01*
X107659Y105303D01*
X107503Y105314D01*
X107437D01*
X107359Y105303D01*
X107259D01*
X107126Y105281D01*
X106981Y105258D01*
X106804Y105225D01*
X106615Y105181D01*
X106749Y106279D01*
X106771D01*
X106826Y106268D01*
X106893Y106257D01*
X107037D01*
X107093Y106268D01*
X107170D01*
X107248Y106279D01*
X107437Y106313D01*
X107659Y106357D01*
X107903Y106435D01*
X108158Y106535D01*
X108402Y106679D01*
X108413D01*
X108436Y106701D01*
X108458Y106723D01*
X108502Y106757D01*
X108613Y106857D01*
X108735Y107001D01*
X108846Y107179D01*
X108957Y107401D01*
X109002Y107523D01*
X109024Y107667D01*
X109046Y107811D01*
X109057Y107967D01*
Y107978D01*
Y108000D01*
Y108033D01*
X109046Y108089D01*
X109035Y108211D01*
X109002Y108377D01*
X108946Y108555D01*
X108857Y108744D01*
X108735Y108943D01*
X108669Y109032D01*
X108580Y109121D01*
X108558Y109143D01*
X108491Y109188D01*
X108391Y109265D01*
X108258Y109354D01*
X108080Y109432D01*
X107870Y109509D01*
X107636Y109554D01*
X107370Y109576D01*
X107303D01*
X107248Y109565D01*
X107181D01*
X107115Y109554D01*
X106937Y109521D01*
X106749Y109465D01*
X106538Y109376D01*
X106338Y109265D01*
X106138Y109110D01*
X106116Y109088D01*
X106060Y109021D01*
X105971Y108921D01*
X105883Y108766D01*
X105772Y108577D01*
X105672Y108333D01*
X105583Y108055D01*
X105516Y107734D01*
X104262Y107956D01*
Y107967D01*
X104273Y108011D01*
X104284Y108078D01*
X104306Y108167D01*
X104340Y108266D01*
X104373Y108389D01*
X104417Y108522D01*
X104473Y108666D01*
X104617Y108988D01*
X104695Y109143D01*
X104795Y109310D01*
X104906Y109465D01*
X105028Y109621D01*
X105161Y109776D01*
X105306Y109909D01*
X105317Y109920D01*
X105339Y109942D01*
X105394Y109976D01*
X105450Y110020D01*
X105539Y110076D01*
X105627Y110131D01*
X105738Y110198D01*
X105872Y110264D01*
X106005Y110320D01*
X106160Y110386D01*
X106327Y110442D01*
X106504Y110497D01*
X106704Y110542D01*
X106904Y110575D01*
X107115Y110597D01*
X107337Y110608D01*
X107481D01*
X107559Y110597D01*
D02*
G37*
G36*
X114230Y100330D02*
X112798D01*
Y101762D01*
X114230D01*
Y100330D01*
D02*
G37*
G36*
X135890Y17780D02*
Y3810D01*
X60960Y3810D01*
X46990Y17780D01*
X135890Y17780D01*
D02*
G37*
G36*
X135890Y17780D02*
X46990D01*
Y88900D01*
X135890D01*
Y17780D01*
D02*
G37*
G36*
X119491Y110597D02*
X119569Y110586D01*
X119780Y110564D01*
X120013Y110520D01*
X120279Y110453D01*
X120546Y110364D01*
X120812Y110242D01*
X120823D01*
X120845Y110231D01*
X120878Y110209D01*
X120934Y110176D01*
X121056Y110098D01*
X121212Y109987D01*
X121389Y109843D01*
X121567Y109676D01*
X121744Y109487D01*
X121900Y109265D01*
Y109254D01*
X121911Y109243D01*
X121933Y109199D01*
X121955Y109154D01*
X121988Y109099D01*
X122022Y109032D01*
X122088Y108866D01*
X122155Y108666D01*
X122222Y108444D01*
X122266Y108200D01*
X122277Y107944D01*
Y107933D01*
Y107911D01*
Y107878D01*
Y107833D01*
X122255Y107700D01*
X122233Y107545D01*
X122188Y107356D01*
X122122Y107156D01*
X122033Y106945D01*
X121911Y106735D01*
Y106723D01*
X121900Y106712D01*
X121844Y106646D01*
X121767Y106546D01*
X121644Y106424D01*
X121500Y106279D01*
X121311Y106135D01*
X121101Y106002D01*
X120856Y105869D01*
X120867D01*
X120901Y105858D01*
X120945Y105847D01*
X121012Y105824D01*
X121078Y105802D01*
X121167Y105769D01*
X121378Y105680D01*
X121600Y105558D01*
X121833Y105414D01*
X122066Y105225D01*
X122266Y104992D01*
X122277Y104981D01*
X122288Y104959D01*
X122310Y104925D01*
X122344Y104870D01*
X122388Y104814D01*
X122432Y104737D01*
X122477Y104648D01*
X122521Y104537D01*
X122566Y104426D01*
X122610Y104304D01*
X122699Y104026D01*
X122754Y103704D01*
X122777Y103527D01*
Y103349D01*
Y103338D01*
Y103294D01*
X122766Y103216D01*
Y103127D01*
X122743Y103005D01*
X122721Y102872D01*
X122699Y102728D01*
X122654Y102561D01*
X122599Y102383D01*
X122532Y102206D01*
X122455Y102017D01*
X122355Y101828D01*
X122244Y101629D01*
X122111Y101440D01*
X121966Y101251D01*
X121789Y101074D01*
X121778Y101063D01*
X121744Y101029D01*
X121689Y100985D01*
X121611Y100929D01*
X121522Y100863D01*
X121400Y100785D01*
X121267Y100696D01*
X121112Y100619D01*
X120945Y100530D01*
X120756Y100441D01*
X120557Y100363D01*
X120335Y100297D01*
X120101Y100241D01*
X119857Y100197D01*
X119602Y100163D01*
X119325Y100152D01*
X119269D01*
X119191Y100163D01*
X119102D01*
X118980Y100175D01*
X118847Y100197D01*
X118703Y100219D01*
X118536Y100252D01*
X118359Y100297D01*
X118181Y100352D01*
X117993Y100408D01*
X117804Y100485D01*
X117615Y100585D01*
X117438Y100685D01*
X117249Y100807D01*
X117082Y100952D01*
X117071Y100963D01*
X117049Y100985D01*
X117005Y101029D01*
X116938Y101096D01*
X116872Y101174D01*
X116794Y101273D01*
X116716Y101384D01*
X116627Y101518D01*
X116538Y101651D01*
X116450Y101817D01*
X116361Y101984D01*
X116283Y102173D01*
X116217Y102372D01*
X116150Y102583D01*
X116106Y102805D01*
X116072Y103038D01*
X117327Y103205D01*
Y103194D01*
X117338Y103160D01*
X117349Y103105D01*
X117371Y103027D01*
X117393Y102938D01*
X117415Y102839D01*
X117493Y102605D01*
X117593Y102350D01*
X117715Y102095D01*
X117871Y101862D01*
X117959Y101762D01*
X118048Y101662D01*
X118059D01*
X118070Y101640D01*
X118104Y101618D01*
X118137Y101584D01*
X118248Y101518D01*
X118403Y101429D01*
X118592Y101340D01*
X118803Y101273D01*
X119058Y101218D01*
X119325Y101196D01*
X119413D01*
X119480Y101207D01*
X119546Y101218D01*
X119646Y101229D01*
X119846Y101273D01*
X120090Y101340D01*
X120346Y101451D01*
X120468Y101529D01*
X120590Y101607D01*
X120712Y101695D01*
X120834Y101806D01*
X120845Y101817D01*
X120856Y101840D01*
X120890Y101873D01*
X120934Y101917D01*
X120978Y101973D01*
X121023Y102051D01*
X121078Y102128D01*
X121145Y102228D01*
X121256Y102450D01*
X121345Y102705D01*
X121422Y103005D01*
X121433Y103160D01*
X121445Y103327D01*
Y103338D01*
Y103360D01*
Y103416D01*
X121433Y103471D01*
X121422Y103549D01*
X121411Y103627D01*
X121378Y103826D01*
X121300Y104059D01*
X121200Y104293D01*
X121134Y104415D01*
X121056Y104526D01*
X120967Y104637D01*
X120867Y104748D01*
X120856Y104759D01*
X120845Y104770D01*
X120812Y104803D01*
X120767Y104837D01*
X120712Y104881D01*
X120645Y104925D01*
X120479Y105036D01*
X120268Y105136D01*
X120024Y105225D01*
X119746Y105292D01*
X119591Y105303D01*
X119436Y105314D01*
X119369D01*
X119291Y105303D01*
X119191D01*
X119058Y105281D01*
X118914Y105258D01*
X118736Y105225D01*
X118547Y105181D01*
X118681Y106279D01*
X118703D01*
X118758Y106268D01*
X118825Y106257D01*
X118969D01*
X119025Y106268D01*
X119102D01*
X119180Y106279D01*
X119369Y106313D01*
X119591Y106357D01*
X119835Y106435D01*
X120090Y106535D01*
X120335Y106679D01*
X120346D01*
X120368Y106701D01*
X120390Y106723D01*
X120435Y106757D01*
X120546Y106857D01*
X120668Y107001D01*
X120779Y107179D01*
X120890Y107401D01*
X120934Y107523D01*
X120956Y107667D01*
X120978Y107811D01*
X120990Y107967D01*
Y107978D01*
Y108000D01*
Y108033D01*
X120978Y108089D01*
X120967Y108211D01*
X120934Y108377D01*
X120878Y108555D01*
X120790Y108744D01*
X120668Y108943D01*
X120601Y109032D01*
X120512Y109121D01*
X120490Y109143D01*
X120423Y109188D01*
X120323Y109265D01*
X120190Y109354D01*
X120013Y109432D01*
X119802Y109509D01*
X119569Y109554D01*
X119302Y109576D01*
X119236D01*
X119180Y109565D01*
X119114D01*
X119047Y109554D01*
X118869Y109521D01*
X118681Y109465D01*
X118470Y109376D01*
X118270Y109265D01*
X118070Y109110D01*
X118048Y109088D01*
X117993Y109021D01*
X117904Y108921D01*
X117815Y108766D01*
X117704Y108577D01*
X117604Y108333D01*
X117515Y108055D01*
X117449Y107734D01*
X116194Y107956D01*
Y107967D01*
X116206Y108011D01*
X116217Y108078D01*
X116239Y108167D01*
X116272Y108266D01*
X116305Y108389D01*
X116350Y108522D01*
X116405Y108666D01*
X116550Y108988D01*
X116627Y109143D01*
X116727Y109310D01*
X116838Y109465D01*
X116960Y109621D01*
X117093Y109776D01*
X117238Y109909D01*
X117249Y109920D01*
X117271Y109942D01*
X117327Y109976D01*
X117382Y110020D01*
X117471Y110076D01*
X117560Y110131D01*
X117671Y110198D01*
X117804Y110264D01*
X117937Y110320D01*
X118092Y110386D01*
X118259Y110442D01*
X118436Y110497D01*
X118636Y110542D01*
X118836Y110575D01*
X119047Y110597D01*
X119269Y110608D01*
X119413D01*
X119491Y110597D01*
D02*
G37*
%LPC*%
G36*
X165268Y63566D02*
X163172D01*
X161387Y60878D01*
X159621Y63566D01*
X157506D01*
X160320Y59267D01*
X157215Y54610D01*
X159378D01*
X161377Y57647D01*
X163366Y54610D01*
X165540D01*
X162454Y59277D01*
X165268Y63566D01*
D02*
G37*
G36*
X169954D02*
X166471D01*
Y54610D01*
X170051D01*
X170226Y54620D01*
X170391Y54629D01*
X170537Y54639D01*
X170682Y54649D01*
X170818Y54668D01*
X170935Y54688D01*
X171041Y54707D01*
X171138Y54717D01*
X171226Y54736D01*
X171303Y54756D01*
X171361Y54765D01*
X171410Y54775D01*
X171439Y54785D01*
X171458Y54794D01*
X171468D01*
X171749Y54901D01*
X172002Y55017D01*
X172215Y55134D01*
X172400Y55250D01*
X172477Y55299D01*
X172545Y55347D01*
X172594Y55396D01*
X172642Y55435D01*
X172681Y55464D01*
X172710Y55493D01*
X172720Y55503D01*
X172729Y55512D01*
X172953Y55755D01*
X173147Y56017D01*
X173312Y56279D01*
X173447Y56531D01*
X173506Y56648D01*
X173554Y56754D01*
X173593Y56851D01*
X173632Y56929D01*
X173651Y56997D01*
X173671Y57055D01*
X173690Y57084D01*
Y57094D01*
X173787Y57404D01*
X173855Y57725D01*
X173904Y58045D01*
X173933Y58346D01*
X173952Y58481D01*
X173962Y58608D01*
Y58714D01*
X173972Y58811D01*
Y58889D01*
Y58947D01*
Y58986D01*
Y58996D01*
Y59229D01*
X173962Y59452D01*
X173942Y59655D01*
X173923Y59859D01*
X173904Y60044D01*
X173874Y60218D01*
X173845Y60383D01*
X173826Y60529D01*
X173797Y60655D01*
X173768Y60771D01*
X173739Y60878D01*
X173719Y60956D01*
X173700Y61024D01*
X173680Y61072D01*
X173671Y61101D01*
Y61111D01*
X173554Y61421D01*
X173418Y61703D01*
X173273Y61955D01*
X173205Y62062D01*
X173137Y62159D01*
X173069Y62256D01*
X173011Y62333D01*
X172953Y62401D01*
X172914Y62460D01*
X172875Y62508D01*
X172846Y62537D01*
X172826Y62557D01*
X172817Y62566D01*
X172594Y62770D01*
X172370Y62945D01*
X172147Y63090D01*
X171934Y63197D01*
X171749Y63284D01*
X171672Y63323D01*
X171604Y63342D01*
X171546Y63362D01*
X171507Y63381D01*
X171478Y63391D01*
X171468D01*
X171352Y63420D01*
X171226Y63449D01*
X170954Y63488D01*
X170672Y63527D01*
X170401Y63546D01*
X170275Y63556D01*
X170051D01*
X169954Y63566D01*
D02*
G37*
G36*
X156962D02*
X149860D01*
Y62052D01*
X152519D01*
Y54610D01*
X154323D01*
Y62052D01*
X156962D01*
Y63566D01*
D02*
G37*
%LPD*%
G36*
X169625Y62042D02*
X169780D01*
X169916Y62033D01*
X170042Y62023D01*
X170149Y62013D01*
X170236D01*
X170323Y62003D01*
X170391Y61994D01*
X170449Y61984D01*
X170488Y61974D01*
X170527D01*
X170546Y61965D01*
X170566D01*
X170750Y61916D01*
X170915Y61848D01*
X171061Y61780D01*
X171177Y61712D01*
X171274Y61645D01*
X171352Y61586D01*
X171390Y61547D01*
X171410Y61538D01*
X171526Y61412D01*
X171633Y61276D01*
X171720Y61130D01*
X171788Y60994D01*
X171847Y60868D01*
X171895Y60762D01*
X171905Y60732D01*
X171915Y60703D01*
X171924Y60684D01*
Y60674D01*
X171953Y60567D01*
X171982Y60451D01*
X172031Y60189D01*
X172060Y59927D01*
X172089Y59675D01*
Y59549D01*
X172099Y59442D01*
Y59345D01*
X172108Y59258D01*
Y59180D01*
Y59131D01*
Y59093D01*
Y59083D01*
Y58899D01*
X172099Y58714D01*
X172089Y58549D01*
X172079Y58384D01*
X172070Y58239D01*
X172050Y58113D01*
X172031Y57987D01*
X172021Y57870D01*
X172002Y57773D01*
X171982Y57686D01*
X171963Y57618D01*
X171953Y57550D01*
X171944Y57501D01*
X171934Y57472D01*
X171924Y57453D01*
Y57443D01*
X171847Y57230D01*
X171769Y57055D01*
X171691Y56910D01*
X171614Y56783D01*
X171556Y56696D01*
X171497Y56628D01*
X171458Y56589D01*
X171449Y56580D01*
X171332Y56492D01*
X171216Y56415D01*
X171090Y56347D01*
X170973Y56289D01*
X170876Y56250D01*
X170799Y56221D01*
X170740Y56211D01*
X170731Y56201D01*
X170721D01*
X170653Y56192D01*
X170576Y56172D01*
X170410Y56153D01*
X170226Y56143D01*
X170042Y56133D01*
X169887Y56124D01*
X168276D01*
Y62052D01*
X169460D01*
X169625Y62042D01*
D02*
G37*
%LPC*%
G36*
X12926Y63566D02*
X8890D01*
Y54610D01*
X10695D01*
Y58346D01*
X11277D01*
X11461Y58326D01*
X11616Y58316D01*
X11743Y58297D01*
X11840Y58278D01*
X11908Y58258D01*
X11956Y58249D01*
X11966Y58239D01*
X12072Y58200D01*
X12170Y58142D01*
X12267Y58084D01*
X12344Y58016D01*
X12412Y57958D01*
X12470Y57919D01*
X12499Y57880D01*
X12509Y57870D01*
X12567Y57812D01*
X12626Y57734D01*
X12694Y57647D01*
X12771Y57550D01*
X12926Y57337D01*
X13091Y57113D01*
X13237Y56900D01*
X13305Y56813D01*
X13353Y56725D01*
X13402Y56657D01*
X13441Y56609D01*
X13460Y56570D01*
X13470Y56560D01*
X14780Y54610D01*
X16943D01*
X15847Y56347D01*
X15731Y56541D01*
X15614Y56706D01*
X15507Y56871D01*
X15410Y57016D01*
X15323Y57152D01*
X15236Y57269D01*
X15158Y57375D01*
X15090Y57472D01*
X15032Y57550D01*
X14974Y57618D01*
X14925Y57676D01*
X14886Y57725D01*
X14857Y57754D01*
X14838Y57783D01*
X14818Y57802D01*
X14673Y57948D01*
X14508Y58093D01*
X14343Y58219D01*
X14188Y58326D01*
X14052Y58423D01*
X13945Y58491D01*
X13906Y58520D01*
X13877Y58530D01*
X13858Y58549D01*
X13848D01*
X14062Y58588D01*
X14265Y58637D01*
X14450Y58695D01*
X14624Y58753D01*
X14789Y58821D01*
X14935Y58889D01*
X15061Y58957D01*
X15177Y59035D01*
X15284Y59102D01*
X15372Y59170D01*
X15449Y59229D01*
X15517Y59277D01*
X15566Y59326D01*
X15595Y59355D01*
X15614Y59374D01*
X15624Y59384D01*
X15731Y59510D01*
X15818Y59646D01*
X15895Y59782D01*
X15963Y59927D01*
X16022Y60063D01*
X16070Y60199D01*
X16138Y60470D01*
X16167Y60587D01*
X16186Y60703D01*
X16196Y60800D01*
X16206Y60888D01*
X16216Y60956D01*
Y61004D01*
Y61043D01*
Y61053D01*
X16196Y61344D01*
X16157Y61606D01*
X16090Y61848D01*
X16022Y62052D01*
X15983Y62139D01*
X15944Y62227D01*
X15915Y62295D01*
X15876Y62353D01*
X15857Y62401D01*
X15837Y62431D01*
X15818Y62450D01*
Y62460D01*
X15663Y62673D01*
X15488Y62857D01*
X15323Y63003D01*
X15158Y63129D01*
X15003Y63216D01*
X14944Y63246D01*
X14886Y63275D01*
X14838Y63294D01*
X14809Y63313D01*
X14789Y63323D01*
X14780D01*
X14654Y63362D01*
X14508Y63401D01*
X14343Y63439D01*
X14178Y63459D01*
X13838Y63507D01*
X13489Y63537D01*
X13334Y63546D01*
X13179Y63556D01*
X13043D01*
X12926Y63566D01*
D02*
G37*
G36*
X29751D02*
X26268D01*
Y54610D01*
X29848D01*
X30023Y54620D01*
X30188Y54629D01*
X30333Y54639D01*
X30479Y54649D01*
X30615Y54668D01*
X30731Y54688D01*
X30838Y54707D01*
X30935Y54717D01*
X31022Y54736D01*
X31100Y54756D01*
X31158Y54765D01*
X31206Y54775D01*
X31235Y54785D01*
X31255Y54794D01*
X31265D01*
X31546Y54901D01*
X31798Y55017D01*
X32012Y55134D01*
X32196Y55250D01*
X32274Y55299D01*
X32342Y55347D01*
X32390Y55396D01*
X32439Y55435D01*
X32478Y55464D01*
X32507Y55493D01*
X32516Y55503D01*
X32526Y55512D01*
X32749Y55755D01*
X32943Y56017D01*
X33108Y56279D01*
X33244Y56531D01*
X33302Y56648D01*
X33351Y56754D01*
X33390Y56851D01*
X33428Y56929D01*
X33448Y56997D01*
X33467Y57055D01*
X33487Y57084D01*
Y57094D01*
X33584Y57404D01*
X33651Y57725D01*
X33700Y58045D01*
X33729Y58346D01*
X33749Y58481D01*
X33758Y58608D01*
Y58714D01*
X33768Y58811D01*
Y58889D01*
Y58947D01*
Y58986D01*
Y58996D01*
Y59229D01*
X33758Y59452D01*
X33739Y59655D01*
X33719Y59859D01*
X33700Y60044D01*
X33671Y60218D01*
X33642Y60383D01*
X33622Y60529D01*
X33593Y60655D01*
X33564Y60771D01*
X33535Y60878D01*
X33516Y60956D01*
X33496Y61024D01*
X33477Y61072D01*
X33467Y61101D01*
Y61111D01*
X33351Y61421D01*
X33215Y61703D01*
X33069Y61955D01*
X33001Y62062D01*
X32933Y62159D01*
X32866Y62256D01*
X32807Y62333D01*
X32749Y62401D01*
X32710Y62460D01*
X32672Y62508D01*
X32643Y62537D01*
X32623Y62557D01*
X32613Y62566D01*
X32390Y62770D01*
X32167Y62945D01*
X31944Y63090D01*
X31730Y63197D01*
X31546Y63284D01*
X31468Y63323D01*
X31400Y63342D01*
X31342Y63362D01*
X31304Y63381D01*
X31274Y63391D01*
X31265D01*
X31148Y63420D01*
X31022Y63449D01*
X30750Y63488D01*
X30469Y63527D01*
X30197Y63546D01*
X30071Y63556D01*
X29848D01*
X29751Y63566D01*
D02*
G37*
G36*
X25065D02*
X22969D01*
X21183Y60878D01*
X19418Y63566D01*
X17302D01*
X20116Y59267D01*
X17011Y54610D01*
X19175D01*
X21174Y57647D01*
X23163Y54610D01*
X25336D01*
X22251Y59277D01*
X25065Y63566D01*
D02*
G37*
%LPD*%
G36*
X12771Y62042D02*
X13004D01*
X13101Y62033D01*
X13247D01*
X13295Y62023D01*
X13373D01*
X13412Y62013D01*
X13421D01*
X13577Y61974D01*
X13722Y61926D01*
X13838Y61877D01*
X13936Y61810D01*
X14013Y61761D01*
X14062Y61712D01*
X14100Y61674D01*
X14110Y61664D01*
X14188Y61547D01*
X14246Y61431D01*
X14295Y61315D01*
X14324Y61198D01*
X14343Y61091D01*
X14353Y61014D01*
Y60956D01*
Y60946D01*
Y60936D01*
X14343Y60791D01*
X14324Y60655D01*
X14295Y60538D01*
X14265Y60441D01*
X14226Y60364D01*
X14197Y60306D01*
X14178Y60267D01*
X14168Y60257D01*
X14091Y60160D01*
X14013Y60082D01*
X13926Y60015D01*
X13838Y59966D01*
X13771Y59927D01*
X13712Y59898D01*
X13673Y59888D01*
X13654Y59879D01*
X13586Y59859D01*
X13489Y59840D01*
X13382Y59830D01*
X13266Y59820D01*
X13004Y59801D01*
X12723Y59782D01*
X12461D01*
X12344Y59772D01*
X10695D01*
Y62052D01*
X12635D01*
X12771Y62042D01*
D02*
G37*
G36*
X29421D02*
X29576D01*
X29712Y62033D01*
X29838Y62023D01*
X29945Y62013D01*
X30032D01*
X30120Y62003D01*
X30188Y61994D01*
X30246Y61984D01*
X30285Y61974D01*
X30324D01*
X30343Y61965D01*
X30362D01*
X30547Y61916D01*
X30712Y61848D01*
X30857Y61780D01*
X30974Y61712D01*
X31071Y61645D01*
X31148Y61586D01*
X31187Y61547D01*
X31206Y61538D01*
X31323Y61412D01*
X31430Y61276D01*
X31517Y61130D01*
X31585Y60994D01*
X31643Y60868D01*
X31692Y60762D01*
X31701Y60732D01*
X31711Y60703D01*
X31721Y60684D01*
Y60674D01*
X31750Y60567D01*
X31779Y60451D01*
X31827Y60189D01*
X31857Y59927D01*
X31886Y59675D01*
Y59549D01*
X31895Y59442D01*
Y59345D01*
X31905Y59258D01*
Y59180D01*
Y59131D01*
Y59093D01*
Y59083D01*
Y58899D01*
X31895Y58714D01*
X31886Y58549D01*
X31876Y58384D01*
X31866Y58239D01*
X31847Y58113D01*
X31827Y57987D01*
X31818Y57870D01*
X31798Y57773D01*
X31779Y57686D01*
X31760Y57618D01*
X31750Y57550D01*
X31740Y57501D01*
X31730Y57472D01*
X31721Y57453D01*
Y57443D01*
X31643Y57230D01*
X31565Y57055D01*
X31488Y56910D01*
X31410Y56783D01*
X31352Y56696D01*
X31294Y56628D01*
X31255Y56589D01*
X31245Y56580D01*
X31129Y56492D01*
X31012Y56415D01*
X30886Y56347D01*
X30770Y56289D01*
X30673Y56250D01*
X30595Y56221D01*
X30537Y56211D01*
X30527Y56201D01*
X30517D01*
X30450Y56192D01*
X30372Y56172D01*
X30207Y56153D01*
X30023Y56143D01*
X29838Y56133D01*
X29683Y56124D01*
X28072D01*
Y62052D01*
X29256D01*
X29421Y62042D01*
D02*
G37*
%LPC*%
G36*
X27088Y150563D02*
X25302D01*
X22065Y142240D01*
X23842D01*
X24536Y144134D01*
X27863D01*
X28593Y142240D01*
X30424D01*
X27088Y150563D01*
D02*
G37*
G36*
X37322D02*
X30722D01*
Y149156D01*
X33192D01*
Y142240D01*
X34869D01*
Y149156D01*
X37322D01*
Y150563D01*
D02*
G37*
G36*
X11128Y150698D02*
X10974D01*
X10623Y150689D01*
X10469Y150671D01*
X10307Y150653D01*
X10163Y150626D01*
X10028Y150608D01*
X9910Y150581D01*
X9793Y150554D01*
X9685Y150518D01*
X9595Y150491D01*
X9523Y150472D01*
X9451Y150445D01*
X9405Y150427D01*
X9360Y150409D01*
X9342Y150400D01*
X9333D01*
X9099Y150283D01*
X8882Y150148D01*
X8711Y150013D01*
X8558Y149877D01*
X8450Y149751D01*
X8359Y149652D01*
X8332Y149616D01*
X8314Y149589D01*
X8296Y149571D01*
Y149562D01*
X8179Y149354D01*
X8089Y149147D01*
X8026Y148940D01*
X7981Y148759D01*
X7954Y148606D01*
X7945Y148534D01*
Y148480D01*
X7936Y148435D01*
Y148399D01*
Y148381D01*
Y148372D01*
X7945Y148191D01*
X7972Y148020D01*
X8008Y147849D01*
X8053Y147695D01*
X8116Y147551D01*
X8179Y147407D01*
X8251Y147281D01*
X8323Y147163D01*
X8386Y147055D01*
X8459Y146965D01*
X8522Y146884D01*
X8585Y146821D01*
X8630Y146767D01*
X8666Y146730D01*
X8693Y146703D01*
X8702Y146694D01*
X8810Y146604D01*
X8936Y146523D01*
X9081Y146442D01*
X9225Y146361D01*
X9541Y146226D01*
X9856Y146099D01*
X10000Y146054D01*
X10136Y146009D01*
X10262Y145964D01*
X10379Y145937D01*
X10469Y145910D01*
X10532Y145892D01*
X10578Y145874D01*
X10596D01*
X10785Y145829D01*
X10956Y145784D01*
X11110Y145748D01*
X11245Y145711D01*
X11371Y145675D01*
X11479Y145648D01*
X11579Y145621D01*
X11660Y145594D01*
X11732Y145576D01*
X11786Y145558D01*
X11840Y145540D01*
X11876Y145531D01*
X11903Y145522D01*
X11921D01*
X11939Y145513D01*
X12092Y145450D01*
X12219Y145396D01*
X12318Y145333D01*
X12408Y145279D01*
X12462Y145225D01*
X12507Y145189D01*
X12534Y145162D01*
X12543Y145153D01*
X12606Y145071D01*
X12651Y144990D01*
X12679Y144900D01*
X12706Y144819D01*
X12715Y144756D01*
X12724Y144702D01*
Y144657D01*
Y144648D01*
Y144566D01*
X12706Y144485D01*
X12660Y144332D01*
X12588Y144188D01*
X12516Y144071D01*
X12444Y143980D01*
X12372Y143908D01*
X12327Y143863D01*
X12318Y143845D01*
X12309D01*
X12228Y143782D01*
X12138Y143728D01*
X11939Y143647D01*
X11732Y143583D01*
X11533Y143547D01*
X11353Y143520D01*
X11281Y143511D01*
X11209D01*
X11155Y143502D01*
X11073D01*
X10803Y143520D01*
X10560Y143566D01*
X10352Y143620D01*
X10172Y143692D01*
X10100Y143728D01*
X10037Y143764D01*
X9973Y143791D01*
X9928Y143818D01*
X9892Y143845D01*
X9865Y143863D01*
X9856Y143881D01*
X9847D01*
X9766Y143962D01*
X9694Y144043D01*
X9568Y144233D01*
X9459Y144440D01*
X9378Y144639D01*
X9324Y144819D01*
X9297Y144891D01*
X9279Y144963D01*
X9270Y145017D01*
X9261Y145062D01*
X9252Y145089D01*
Y145098D01*
X7620Y144936D01*
X7656Y144684D01*
X7710Y144440D01*
X7773Y144224D01*
X7845Y144016D01*
X7927Y143827D01*
X8008Y143647D01*
X8098Y143493D01*
X8188Y143349D01*
X8269Y143223D01*
X8350Y143115D01*
X8432Y143025D01*
X8495Y142943D01*
X8549Y142889D01*
X8594Y142844D01*
X8621Y142817D01*
X8630Y142808D01*
X8801Y142682D01*
X8982Y142574D01*
X9171Y142474D01*
X9369Y142393D01*
X9568Y142321D01*
X9766Y142267D01*
X9964Y142213D01*
X10163Y142177D01*
X10343Y142150D01*
X10515Y142123D01*
X10668Y142105D01*
X10794Y142096D01*
X10902D01*
X10983Y142087D01*
X11254D01*
X11443Y142096D01*
X11633Y142114D01*
X11795Y142132D01*
X11957Y142159D01*
X12111Y142177D01*
X12246Y142204D01*
X12372Y142240D01*
X12480Y142267D01*
X12579Y142294D01*
X12670Y142312D01*
X12742Y142339D01*
X12796Y142357D01*
X12832Y142375D01*
X12859Y142384D01*
X12868D01*
X13129Y142510D01*
X13355Y142655D01*
X13544Y142817D01*
X13707Y142961D01*
X13833Y143097D01*
X13878Y143160D01*
X13923Y143214D01*
X13950Y143250D01*
X13977Y143286D01*
X13995Y143304D01*
Y143313D01*
X14067Y143430D01*
X14130Y143556D01*
X14230Y143791D01*
X14302Y144016D01*
X14347Y144224D01*
X14365Y144314D01*
X14383Y144395D01*
X14392Y144476D01*
Y144539D01*
X14401Y144584D01*
Y144629D01*
Y144648D01*
Y144657D01*
X14383Y144936D01*
X14347Y145198D01*
X14293Y145423D01*
X14266Y145522D01*
X14239Y145612D01*
X14202Y145694D01*
X14175Y145766D01*
X14148Y145829D01*
X14121Y145883D01*
X14094Y145928D01*
X14085Y145955D01*
X14067Y145973D01*
Y145982D01*
X13932Y146171D01*
X13779Y146343D01*
X13625Y146487D01*
X13481Y146613D01*
X13346Y146703D01*
X13238Y146776D01*
X13192Y146794D01*
X13166Y146812D01*
X13147Y146830D01*
X13138D01*
X13021Y146884D01*
X12895Y146947D01*
X12751Y147001D01*
X12606Y147055D01*
X12309Y147154D01*
X12011Y147244D01*
X11876Y147281D01*
X11741Y147317D01*
X11633Y147353D01*
X11524Y147380D01*
X11443Y147398D01*
X11380Y147416D01*
X11344Y147425D01*
X11326D01*
X11110Y147479D01*
X10911Y147533D01*
X10731Y147587D01*
X10569Y147641D01*
X10424Y147686D01*
X10298Y147731D01*
X10190Y147776D01*
X10100Y147812D01*
X10019Y147849D01*
X9946Y147885D01*
X9892Y147912D01*
X9856Y147939D01*
X9820Y147957D01*
X9802Y147975D01*
X9784Y147984D01*
X9703Y148065D01*
X9640Y148146D01*
X9604Y148236D01*
X9568Y148317D01*
X9550Y148381D01*
X9541Y148444D01*
Y148480D01*
Y148489D01*
X9550Y148606D01*
X9586Y148705D01*
X9622Y148795D01*
X9676Y148868D01*
X9721Y148922D01*
X9766Y148967D01*
X9793Y148994D01*
X9802Y149003D01*
X9973Y149102D01*
X10154Y149183D01*
X10352Y149237D01*
X10532Y149273D01*
X10704Y149291D01*
X10776Y149300D01*
X10839Y149309D01*
X10956D01*
X11209Y149300D01*
X11425Y149264D01*
X11605Y149219D01*
X11759Y149165D01*
X11876Y149111D01*
X11957Y149066D01*
X12002Y149030D01*
X12020Y149021D01*
X12147Y148904D01*
X12246Y148759D01*
X12327Y148606D01*
X12390Y148462D01*
X12435Y148327D01*
X12453Y148263D01*
X12471Y148209D01*
X12480Y148173D01*
Y148137D01*
X12489Y148119D01*
Y148110D01*
X14166Y148173D01*
X14148Y148381D01*
X14121Y148579D01*
X14076Y148768D01*
X14013Y148940D01*
X13950Y149102D01*
X13878Y149255D01*
X13806Y149390D01*
X13734Y149517D01*
X13652Y149625D01*
X13580Y149724D01*
X13517Y149814D01*
X13454Y149877D01*
X13400Y149931D01*
X13364Y149977D01*
X13337Y149995D01*
X13328Y150004D01*
X13175Y150130D01*
X13003Y150229D01*
X12814Y150328D01*
X12624Y150409D01*
X12435Y150472D01*
X12237Y150527D01*
X12038Y150572D01*
X11858Y150608D01*
X11678Y150644D01*
X11506Y150662D01*
X11362Y150680D01*
X11227Y150689D01*
X11128Y150698D01*
D02*
G37*
G36*
X21831Y150563D02*
X15230D01*
Y149156D01*
X17701D01*
Y142240D01*
X19378D01*
Y149156D01*
X21831D01*
Y150563D01*
D02*
G37*
%LPD*%
G36*
X27331Y145540D02*
X25050D01*
X26177Y148624D01*
X27331Y145540D01*
D02*
G37*
%LPC*%
G36*
X126856Y154763D02*
X121953D01*
Y143885D01*
X124145D01*
Y148423D01*
X124852D01*
X125076Y148399D01*
X125265Y148387D01*
X125418Y148364D01*
X125536Y148340D01*
X125618Y148316D01*
X125677Y148305D01*
X125689Y148293D01*
X125819Y148246D01*
X125936Y148175D01*
X126054Y148104D01*
X126149Y148022D01*
X126231Y147951D01*
X126302Y147904D01*
X126337Y147857D01*
X126349Y147845D01*
X126420Y147774D01*
X126490Y147680D01*
X126573Y147574D01*
X126667Y147456D01*
X126856Y147197D01*
X127056Y146926D01*
X127233Y146666D01*
X127315Y146560D01*
X127374Y146454D01*
X127433Y146372D01*
X127480Y146313D01*
X127504Y146266D01*
X127516Y146254D01*
X129107Y143885D01*
X131735D01*
X130403Y145995D01*
X130262Y146230D01*
X130120Y146431D01*
X129991Y146631D01*
X129873Y146808D01*
X129767Y146973D01*
X129661Y147114D01*
X129566Y147244D01*
X129484Y147362D01*
X129413Y147456D01*
X129342Y147539D01*
X129284Y147609D01*
X129236Y147668D01*
X129201Y147704D01*
X129178Y147739D01*
X129154Y147763D01*
X128977Y147939D01*
X128777Y148116D01*
X128576Y148269D01*
X128388Y148399D01*
X128223Y148517D01*
X128093Y148599D01*
X128046Y148635D01*
X128011Y148646D01*
X127987Y148670D01*
X127975D01*
X128235Y148717D01*
X128482Y148776D01*
X128706Y148847D01*
X128918Y148918D01*
X129119Y149000D01*
X129295Y149083D01*
X129449Y149165D01*
X129590Y149259D01*
X129720Y149342D01*
X129826Y149424D01*
X129920Y149495D01*
X130002Y149554D01*
X130061Y149613D01*
X130097Y149648D01*
X130120Y149672D01*
X130132Y149684D01*
X130262Y149837D01*
X130368Y150002D01*
X130462Y150167D01*
X130545Y150344D01*
X130615Y150509D01*
X130674Y150674D01*
X130757Y151004D01*
X130792Y151145D01*
X130816Y151286D01*
X130828Y151404D01*
X130839Y151510D01*
X130851Y151593D01*
Y151652D01*
Y151699D01*
Y151711D01*
X130828Y152064D01*
X130780Y152382D01*
X130698Y152677D01*
X130615Y152925D01*
X130568Y153031D01*
X130521Y153137D01*
X130486Y153219D01*
X130439Y153290D01*
X130415Y153349D01*
X130391Y153384D01*
X130368Y153408D01*
Y153420D01*
X130179Y153679D01*
X129967Y153903D01*
X129767Y154080D01*
X129566Y154233D01*
X129378Y154339D01*
X129307Y154374D01*
X129236Y154410D01*
X129178Y154433D01*
X129142Y154457D01*
X129119Y154469D01*
X129107D01*
X128954Y154516D01*
X128777Y154563D01*
X128576Y154610D01*
X128376Y154634D01*
X127964Y154692D01*
X127539Y154728D01*
X127351Y154740D01*
X127162Y154751D01*
X126997D01*
X126856Y154763D01*
D02*
G37*
G36*
X101481D02*
X97474D01*
Y143885D01*
X99666D01*
Y147986D01*
X101363D01*
X101623Y147998D01*
X101859D01*
X102082Y148010D01*
X102283Y148022D01*
X102471Y148034D01*
X102648Y148045D01*
X102801Y148069D01*
X102931Y148081D01*
X103049Y148093D01*
X103155Y148104D01*
X103237Y148116D01*
X103296Y148128D01*
X103343D01*
X103367Y148140D01*
X103379D01*
X103591Y148199D01*
X103803Y148269D01*
X103992Y148352D01*
X104157Y148434D01*
X104310Y148517D01*
X104416Y148588D01*
X104487Y148635D01*
X104498Y148646D01*
X104510D01*
X104711Y148812D01*
X104899Y148988D01*
X105052Y149165D01*
X105194Y149330D01*
X105300Y149483D01*
X105371Y149613D01*
X105406Y149660D01*
X105429Y149695D01*
X105441Y149707D01*
Y149719D01*
X105559Y149990D01*
X105653Y150273D01*
X105712Y150556D01*
X105759Y150815D01*
X105771Y150945D01*
X105783Y151051D01*
X105795Y151157D01*
X105807Y151239D01*
Y151310D01*
Y151357D01*
Y151392D01*
Y151404D01*
X105795Y151640D01*
X105783Y151876D01*
X105748Y152088D01*
X105712Y152288D01*
X105665Y152477D01*
X105606Y152654D01*
X105547Y152807D01*
X105488Y152960D01*
X105429Y153090D01*
X105371Y153196D01*
X105323Y153302D01*
X105265Y153384D01*
X105229Y153443D01*
X105194Y153490D01*
X105182Y153514D01*
X105170Y153526D01*
X105052Y153679D01*
X104923Y153809D01*
X104793Y153926D01*
X104652Y154044D01*
X104392Y154233D01*
X104145Y154374D01*
X103933Y154480D01*
X103839Y154516D01*
X103756Y154551D01*
X103697Y154575D01*
X103650Y154586D01*
X103615Y154598D01*
X103603D01*
X103473Y154622D01*
X103320Y154657D01*
X103143Y154681D01*
X102943Y154692D01*
X102731Y154704D01*
X102519Y154728D01*
X102071Y154740D01*
X101859Y154751D01*
X101670D01*
X101481Y154763D01*
D02*
G37*
G36*
X120798D02*
X118582D01*
X116932Y147162D01*
X115047Y154763D01*
X112418D01*
X110427Y147279D01*
X108800Y154763D01*
X106549D01*
X109118Y143885D01*
X111511D01*
X113679Y152017D01*
X115824Y143885D01*
X118193D01*
X120798Y154763D01*
D02*
G37*
G36*
X77380Y154940D02*
X76897D01*
X76625Y154916D01*
X76366Y154893D01*
X76119Y154858D01*
X75883Y154810D01*
X75671Y154763D01*
X75470Y154716D01*
X75294Y154669D01*
X75129Y154622D01*
X74987Y154575D01*
X74869Y154528D01*
X74763Y154480D01*
X74681Y154445D01*
X74622Y154421D01*
X74587Y154410D01*
X74575Y154398D01*
X74327Y154256D01*
X74092Y154103D01*
X73868Y153950D01*
X73667Y153785D01*
X73479Y153608D01*
X73314Y153443D01*
X73149Y153278D01*
X73019Y153113D01*
X72889Y152960D01*
X72783Y152819D01*
X72701Y152689D01*
X72618Y152583D01*
X72559Y152489D01*
X72524Y152418D01*
X72501Y152371D01*
X72489Y152359D01*
X72359Y152112D01*
X72253Y151852D01*
X72159Y151593D01*
X72076Y151334D01*
X72017Y151074D01*
X71958Y150827D01*
X71911Y150579D01*
X71876Y150355D01*
X71841Y150143D01*
X71817Y149955D01*
X71805Y149778D01*
X71793Y149625D01*
X71782Y149507D01*
Y149413D01*
Y149365D01*
Y149342D01*
X71793Y149047D01*
X71805Y148764D01*
X71841Y148493D01*
X71876Y148222D01*
X71935Y147975D01*
X71982Y147739D01*
X72041Y147515D01*
X72100Y147303D01*
X72159Y147114D01*
X72218Y146949D01*
X72277Y146796D01*
X72324Y146678D01*
X72359Y146572D01*
X72394Y146502D01*
X72406Y146454D01*
X72418Y146443D01*
X72548Y146195D01*
X72677Y145971D01*
X72831Y145759D01*
X72984Y145559D01*
X73137Y145382D01*
X73302Y145205D01*
X73455Y145052D01*
X73608Y144922D01*
X73750Y144793D01*
X73879Y144686D01*
X74009Y144604D01*
X74103Y144522D01*
X74198Y144463D01*
X74257Y144427D01*
X74304Y144404D01*
X74316Y144392D01*
X74563Y144262D01*
X74811Y144156D01*
X75058Y144062D01*
X75317Y143979D01*
X75577Y143920D01*
X75824Y143862D01*
X76060Y143814D01*
X76284Y143779D01*
X76496Y143744D01*
X76684Y143720D01*
X76861Y143708D01*
X77014Y143696D01*
X77132Y143685D01*
X77297D01*
X77545Y143696D01*
X77792Y143708D01*
X78275Y143767D01*
X78511Y143803D01*
X78723Y143850D01*
X78935Y143897D01*
X79124Y143944D01*
X79301Y143991D01*
X79466Y144026D01*
X79607Y144074D01*
X79725Y144109D01*
X79819Y144144D01*
X79890Y144168D01*
X79937Y144192D01*
X79949D01*
X80185Y144286D01*
X80409Y144392D01*
X80621Y144486D01*
X80809Y144592D01*
X80998Y144686D01*
X81163Y144781D01*
X81304Y144875D01*
X81446Y144969D01*
X81564Y145052D01*
X81670Y145123D01*
X81752Y145193D01*
X81823Y145252D01*
X81882Y145299D01*
X81917Y145335D01*
X81941Y145346D01*
X81953Y145358D01*
Y149707D01*
X77227D01*
Y147869D01*
X79737D01*
Y146478D01*
X79536Y146336D01*
X79336Y146219D01*
X79136Y146113D01*
X78947Y146018D01*
X78782Y145936D01*
X78653Y145877D01*
X78605Y145853D01*
X78570Y145842D01*
X78547Y145830D01*
X78535D01*
X78275Y145735D01*
X78028Y145676D01*
X77804Y145629D01*
X77592Y145594D01*
X77415Y145570D01*
X77333D01*
X77274Y145559D01*
X77156D01*
X76897Y145570D01*
X76661Y145606D01*
X76437Y145653D01*
X76213Y145712D01*
X76013Y145783D01*
X75836Y145865D01*
X75659Y145948D01*
X75506Y146042D01*
X75376Y146136D01*
X75247Y146219D01*
X75152Y146301D01*
X75058Y146372D01*
X74999Y146431D01*
X74940Y146490D01*
X74917Y146513D01*
X74905Y146525D01*
X74752Y146714D01*
X74622Y146926D01*
X74504Y147150D01*
X74410Y147385D01*
X74327Y147633D01*
X74257Y147869D01*
X74198Y148116D01*
X74151Y148340D01*
X74115Y148564D01*
X74092Y148776D01*
X74068Y148953D01*
X74056Y149118D01*
Y149248D01*
X74044Y149354D01*
Y149413D01*
Y149436D01*
X74056Y149766D01*
X74080Y150072D01*
X74127Y150355D01*
X74174Y150615D01*
X74245Y150862D01*
X74316Y151086D01*
X74386Y151286D01*
X74469Y151463D01*
X74551Y151628D01*
X74622Y151758D01*
X74693Y151876D01*
X74763Y151970D01*
X74811Y152052D01*
X74858Y152100D01*
X74881Y152135D01*
X74893Y152147D01*
X75058Y152312D01*
X75235Y152453D01*
X75423Y152571D01*
X75612Y152677D01*
X75800Y152771D01*
X75989Y152842D01*
X76178Y152901D01*
X76354Y152948D01*
X76519Y152984D01*
X76684Y153019D01*
X76826Y153042D01*
X76944Y153054D01*
X77038Y153066D01*
X77179D01*
X77521Y153042D01*
X77828Y152995D01*
X78099Y152913D01*
X78323Y152830D01*
X78417Y152783D01*
X78511Y152748D01*
X78582Y152701D01*
X78641Y152665D01*
X78700Y152642D01*
X78735Y152618D01*
X78747Y152595D01*
X78759D01*
X78983Y152406D01*
X79159Y152206D01*
X79313Y151994D01*
X79430Y151793D01*
X79525Y151616D01*
X79560Y151534D01*
X79584Y151463D01*
X79607Y151416D01*
X79619Y151369D01*
X79631Y151345D01*
Y151334D01*
X81811Y151746D01*
X81741Y152017D01*
X81658Y152276D01*
X81552Y152524D01*
X81446Y152748D01*
X81328Y152948D01*
X81198Y153149D01*
X81081Y153325D01*
X80951Y153479D01*
X80833Y153620D01*
X80715Y153750D01*
X80609Y153844D01*
X80527Y153938D01*
X80444Y154009D01*
X80385Y154056D01*
X80350Y154080D01*
X80338Y154091D01*
X80114Y154245D01*
X79878Y154374D01*
X79631Y154480D01*
X79372Y154586D01*
X79100Y154669D01*
X78841Y154728D01*
X78582Y154787D01*
X78334Y154834D01*
X78099Y154869D01*
X77887Y154893D01*
X77686Y154916D01*
X77509Y154928D01*
X77380Y154940D01*
D02*
G37*
G36*
X91841Y154763D02*
X83214D01*
Y152925D01*
X86443D01*
Y143885D01*
X88635D01*
Y152925D01*
X91841D01*
Y154763D01*
D02*
G37*
G36*
X59772D02*
X51145D01*
Y152925D01*
X54374D01*
Y143885D01*
X56566D01*
Y152925D01*
X59772D01*
Y154763D01*
D02*
G37*
G36*
X66089D02*
X61186D01*
Y143885D01*
X63379D01*
Y148423D01*
X64086D01*
X64310Y148399D01*
X64498Y148387D01*
X64651Y148364D01*
X64769Y148340D01*
X64852Y148316D01*
X64911Y148305D01*
X64922Y148293D01*
X65052Y148246D01*
X65170Y148175D01*
X65288Y148104D01*
X65382Y148022D01*
X65465Y147951D01*
X65535Y147904D01*
X65571Y147857D01*
X65582Y147845D01*
X65653Y147774D01*
X65724Y147680D01*
X65806Y147574D01*
X65901Y147456D01*
X66089Y147197D01*
X66290Y146926D01*
X66466Y146666D01*
X66549Y146560D01*
X66608Y146454D01*
X66667Y146372D01*
X66714Y146313D01*
X66737Y146266D01*
X66749Y146254D01*
X68340Y143885D01*
X70968D01*
X69637Y145995D01*
X69495Y146230D01*
X69354Y146431D01*
X69224Y146631D01*
X69106Y146808D01*
X69000Y146973D01*
X68894Y147114D01*
X68800Y147244D01*
X68717Y147362D01*
X68647Y147456D01*
X68576Y147539D01*
X68517Y147609D01*
X68470Y147668D01*
X68435Y147704D01*
X68411Y147739D01*
X68387Y147763D01*
X68211Y147939D01*
X68010Y148116D01*
X67810Y148269D01*
X67621Y148399D01*
X67456Y148517D01*
X67327Y148599D01*
X67280Y148635D01*
X67244Y148646D01*
X67221Y148670D01*
X67209D01*
X67468Y148717D01*
X67716Y148776D01*
X67940Y148847D01*
X68152Y148918D01*
X68352Y149000D01*
X68529Y149083D01*
X68682Y149165D01*
X68823Y149259D01*
X68953Y149342D01*
X69059Y149424D01*
X69153Y149495D01*
X69236Y149554D01*
X69295Y149613D01*
X69330Y149648D01*
X69354Y149672D01*
X69366Y149684D01*
X69495Y149837D01*
X69601Y150002D01*
X69696Y150167D01*
X69778Y150344D01*
X69849Y150509D01*
X69908Y150674D01*
X69990Y151004D01*
X70026Y151145D01*
X70049Y151286D01*
X70061Y151404D01*
X70073Y151510D01*
X70085Y151593D01*
Y151652D01*
Y151699D01*
Y151711D01*
X70061Y152064D01*
X70014Y152382D01*
X69931Y152677D01*
X69849Y152925D01*
X69802Y153031D01*
X69755Y153137D01*
X69719Y153219D01*
X69672Y153290D01*
X69648Y153349D01*
X69625Y153384D01*
X69601Y153408D01*
Y153420D01*
X69413Y153679D01*
X69201Y153903D01*
X69000Y154080D01*
X68800Y154233D01*
X68611Y154339D01*
X68541Y154374D01*
X68470Y154410D01*
X68411Y154433D01*
X68376Y154457D01*
X68352Y154469D01*
X68340D01*
X68187Y154516D01*
X68010Y154563D01*
X67810Y154610D01*
X67610Y154634D01*
X67197Y154692D01*
X66773Y154728D01*
X66584Y154740D01*
X66396Y154751D01*
X66231D01*
X66089Y154763D01*
D02*
G37*
%LPD*%
G36*
X126667Y152913D02*
X126950D01*
X127068Y152901D01*
X127245D01*
X127304Y152889D01*
X127398D01*
X127445Y152878D01*
X127457D01*
X127645Y152830D01*
X127822Y152771D01*
X127964Y152712D01*
X128081Y152630D01*
X128176Y152571D01*
X128235Y152512D01*
X128282Y152465D01*
X128294Y152453D01*
X128388Y152312D01*
X128459Y152170D01*
X128518Y152029D01*
X128553Y151888D01*
X128576Y151758D01*
X128588Y151664D01*
Y151593D01*
Y151581D01*
Y151569D01*
X128576Y151392D01*
X128553Y151228D01*
X128518Y151086D01*
X128482Y150968D01*
X128435Y150874D01*
X128400Y150803D01*
X128376Y150756D01*
X128364Y150744D01*
X128270Y150626D01*
X128176Y150532D01*
X128070Y150450D01*
X127964Y150391D01*
X127881Y150344D01*
X127810Y150308D01*
X127763Y150296D01*
X127740Y150285D01*
X127657Y150261D01*
X127539Y150238D01*
X127410Y150226D01*
X127268Y150214D01*
X126950Y150190D01*
X126608Y150167D01*
X126290D01*
X126149Y150155D01*
X124145D01*
Y152925D01*
X126502D01*
X126667Y152913D01*
D02*
G37*
G36*
X101316D02*
X101469D01*
X101611Y152901D01*
X101741D01*
X101859Y152889D01*
X101965D01*
X102047Y152878D01*
X102118Y152866D01*
X102177D01*
X102224Y152854D01*
X102283Y152842D01*
X102306D01*
X102495Y152795D01*
X102672Y152724D01*
X102825Y152654D01*
X102943Y152571D01*
X103049Y152489D01*
X103131Y152418D01*
X103179Y152371D01*
X103190Y152359D01*
X103308Y152206D01*
X103391Y152041D01*
X103461Y151876D01*
X103497Y151722D01*
X103520Y151593D01*
X103544Y151475D01*
Y151404D01*
Y151392D01*
Y151381D01*
X103532Y151204D01*
X103509Y151039D01*
X103461Y150898D01*
X103414Y150780D01*
X103367Y150674D01*
X103320Y150603D01*
X103296Y150544D01*
X103285Y150532D01*
X103190Y150402D01*
X103072Y150296D01*
X102955Y150202D01*
X102849Y150120D01*
X102754Y150061D01*
X102672Y150025D01*
X102625Y150002D01*
X102601Y149990D01*
X102507Y149966D01*
X102401Y149931D01*
X102283Y149919D01*
X102141Y149896D01*
X101859Y149860D01*
X101576Y149849D01*
X101305Y149837D01*
X101187Y149825D01*
X99666D01*
Y152925D01*
X101139D01*
X101316Y152913D01*
D02*
G37*
G36*
X65901D02*
X66184D01*
X66301Y152901D01*
X66478D01*
X66537Y152889D01*
X66631D01*
X66679Y152878D01*
X66690D01*
X66879Y152830D01*
X67056Y152771D01*
X67197Y152712D01*
X67315Y152630D01*
X67409Y152571D01*
X67468Y152512D01*
X67515Y152465D01*
X67527Y152453D01*
X67621Y152312D01*
X67692Y152170D01*
X67751Y152029D01*
X67786Y151888D01*
X67810Y151758D01*
X67822Y151664D01*
Y151593D01*
Y151581D01*
Y151569D01*
X67810Y151392D01*
X67786Y151228D01*
X67751Y151086D01*
X67716Y150968D01*
X67668Y150874D01*
X67633Y150803D01*
X67610Y150756D01*
X67598Y150744D01*
X67503Y150626D01*
X67409Y150532D01*
X67303Y150450D01*
X67197Y150391D01*
X67115Y150344D01*
X67044Y150308D01*
X66997Y150296D01*
X66973Y150285D01*
X66891Y150261D01*
X66773Y150238D01*
X66643Y150226D01*
X66502Y150214D01*
X66184Y150190D01*
X65842Y150167D01*
X65524D01*
X65382Y150155D01*
X63379D01*
Y152925D01*
X65736D01*
X65901Y152913D01*
D02*
G37*
%LPC*%
G36*
X142667Y394435D02*
X142524D01*
X141870Y394403D01*
X141264Y394339D01*
X140992Y394291D01*
X140721Y394244D01*
X140482Y394196D01*
X140259Y394148D01*
X140051Y394084D01*
X139876Y394036D01*
X139716Y393988D01*
X139589Y393941D01*
X139493Y393893D01*
X139413Y393877D01*
X139365Y393845D01*
X139349D01*
X138967Y393669D01*
X138616Y393462D01*
X138281Y393239D01*
X138010Y393015D01*
X137770Y392824D01*
X137675Y392744D01*
X137595Y392664D01*
X137531Y392601D01*
X137483Y392553D01*
X137451Y392537D01*
X137435Y392521D01*
X137132Y392170D01*
X136861Y391835D01*
X136622Y391484D01*
X136430Y391181D01*
X136287Y390894D01*
X136223Y390782D01*
X136175Y390686D01*
X136127Y390607D01*
X136095Y390543D01*
X136079Y390511D01*
Y390495D01*
X135968Y390208D01*
X135856Y389889D01*
X135697Y389267D01*
X135569Y388629D01*
X135537Y388326D01*
X135489Y388039D01*
X135473Y387751D01*
X135441Y387512D01*
X135425Y387289D01*
Y387097D01*
X135409Y386938D01*
Y386810D01*
Y386746D01*
Y386715D01*
X135425Y386077D01*
X135489Y385470D01*
X135585Y384896D01*
X135713Y384370D01*
X135856Y383875D01*
X136016Y383429D01*
X136191Y383014D01*
X136383Y382647D01*
X136558Y382312D01*
X136733Y382025D01*
X136893Y381770D01*
X137037Y381562D01*
X137164Y381403D01*
X137260Y381291D01*
X137324Y381227D01*
X137340Y381195D01*
X137722Y380845D01*
X138121Y380541D01*
X138536Y380270D01*
X138967Y380047D01*
X139397Y379856D01*
X139844Y379696D01*
X140259Y379552D01*
X140673Y379457D01*
X141056Y379361D01*
X141407Y379313D01*
X141742Y379265D01*
X142013Y379234D01*
X142237Y379218D01*
X142412Y379202D01*
X142556D01*
X143146Y379218D01*
X143720Y379281D01*
X144246Y379393D01*
X144741Y379521D01*
X145204Y379664D01*
X145634Y379840D01*
X146017Y380015D01*
X146368Y380206D01*
X146687Y380398D01*
X146958Y380573D01*
X147197Y380749D01*
X147389Y380892D01*
X147548Y381020D01*
X147644Y381132D01*
X147724Y381195D01*
X147740Y381212D01*
X148091Y381610D01*
X148378Y382025D01*
X148649Y382472D01*
X148872Y382934D01*
X149048Y383397D01*
X149207Y383859D01*
X149335Y384322D01*
X149446Y384753D01*
X149526Y385167D01*
X149590Y385566D01*
X149622Y385901D01*
X149654Y386204D01*
X149670Y386459D01*
X149686Y386555D01*
Y386635D01*
Y386699D01*
Y386746D01*
Y386778D01*
Y386794D01*
X149670Y387448D01*
X149606Y388070D01*
X149510Y388645D01*
X149383Y389187D01*
X149239Y389682D01*
X149064Y390144D01*
X148888Y390575D01*
X148713Y390942D01*
X148521Y391293D01*
X148346Y391580D01*
X148186Y391835D01*
X148027Y392042D01*
X147899Y392202D01*
X147804Y392313D01*
X147740Y392393D01*
X147724Y392409D01*
X147341Y392760D01*
X146942Y393079D01*
X146528Y393350D01*
X146097Y393574D01*
X145650Y393781D01*
X145219Y393941D01*
X144805Y394068D01*
X144390Y394180D01*
X144007Y394259D01*
X143656Y394323D01*
X143337Y394371D01*
X143066Y394403D01*
X142843Y394419D01*
X142667Y394435D01*
D02*
G37*
G36*
X38618Y394196D02*
X33194D01*
Y379473D01*
X36161D01*
Y385024D01*
X38458D01*
X38809Y385040D01*
X39128D01*
X39431Y385056D01*
X39702Y385072D01*
X39957Y385088D01*
X40197Y385103D01*
X40404Y385135D01*
X40580Y385151D01*
X40739Y385167D01*
X40883Y385183D01*
X40994Y385199D01*
X41074Y385215D01*
X41138D01*
X41170Y385231D01*
X41186D01*
X41473Y385311D01*
X41760Y385407D01*
X42015Y385518D01*
X42238Y385630D01*
X42446Y385742D01*
X42589Y385837D01*
X42685Y385901D01*
X42701Y385917D01*
X42717D01*
X42988Y386140D01*
X43243Y386380D01*
X43451Y386619D01*
X43642Y386842D01*
X43786Y387050D01*
X43882Y387225D01*
X43929Y387289D01*
X43961Y387337D01*
X43977Y387353D01*
Y387369D01*
X44137Y387735D01*
X44264Y388118D01*
X44344Y388501D01*
X44408Y388852D01*
X44424Y389027D01*
X44440Y389171D01*
X44456Y389315D01*
X44472Y389426D01*
Y389522D01*
Y389586D01*
Y389634D01*
Y389650D01*
X44456Y389969D01*
X44440Y390288D01*
X44392Y390575D01*
X44344Y390846D01*
X44280Y391101D01*
X44201Y391340D01*
X44121Y391548D01*
X44041Y391755D01*
X43961Y391931D01*
X43882Y392074D01*
X43818Y392218D01*
X43738Y392329D01*
X43690Y392409D01*
X43642Y392473D01*
X43626Y392505D01*
X43610Y392521D01*
X43451Y392728D01*
X43275Y392904D01*
X43100Y393063D01*
X42909Y393223D01*
X42558Y393478D01*
X42223Y393669D01*
X41936Y393813D01*
X41808Y393861D01*
X41696Y393909D01*
X41616Y393941D01*
X41553Y393956D01*
X41505Y393972D01*
X41489D01*
X41313Y394004D01*
X41106Y394052D01*
X40867Y394084D01*
X40595Y394100D01*
X40308Y394116D01*
X40021Y394148D01*
X39415Y394164D01*
X39128Y394180D01*
X38873D01*
X38618Y394196D01*
D02*
G37*
G36*
X68414Y394435D02*
X68271D01*
X67617Y394403D01*
X67011Y394339D01*
X66740Y394291D01*
X66468Y394244D01*
X66229Y394196D01*
X66006Y394148D01*
X65798Y394084D01*
X65623Y394036D01*
X65464Y393988D01*
X65336Y393941D01*
X65240Y393893D01*
X65160Y393877D01*
X65113Y393845D01*
X65097D01*
X64714Y393669D01*
X64363Y393462D01*
X64028Y393239D01*
X63757Y393015D01*
X63517Y392824D01*
X63422Y392744D01*
X63342Y392664D01*
X63278Y392601D01*
X63230Y392553D01*
X63198Y392537D01*
X63182Y392521D01*
X62879Y392170D01*
X62608Y391835D01*
X62369Y391484D01*
X62178Y391181D01*
X62034Y390894D01*
X61970Y390782D01*
X61922Y390686D01*
X61874Y390607D01*
X61842Y390543D01*
X61827Y390511D01*
Y390495D01*
X61715Y390208D01*
X61603Y389889D01*
X61444Y389267D01*
X61316Y388629D01*
X61284Y388326D01*
X61236Y388039D01*
X61220Y387751D01*
X61189Y387512D01*
X61173Y387289D01*
Y387097D01*
X61157Y386938D01*
Y386810D01*
Y386746D01*
Y386715D01*
X61173Y386077D01*
X61236Y385470D01*
X61332Y384896D01*
X61460Y384370D01*
X61603Y383875D01*
X61763Y383429D01*
X61938Y383014D01*
X62130Y382647D01*
X62305Y382312D01*
X62481Y382025D01*
X62640Y381770D01*
X62784Y381562D01*
X62911Y381403D01*
X63007Y381291D01*
X63071Y381227D01*
X63087Y381195D01*
X63470Y380845D01*
X63868Y380541D01*
X64283Y380270D01*
X64714Y380047D01*
X65144Y379856D01*
X65591Y379696D01*
X66006Y379552D01*
X66420Y379457D01*
X66803Y379361D01*
X67154Y379313D01*
X67489Y379265D01*
X67760Y379234D01*
X67984Y379218D01*
X68159Y379202D01*
X68303D01*
X68893Y379218D01*
X69467Y379281D01*
X69994Y379393D01*
X70488Y379521D01*
X70951Y379664D01*
X71381Y379840D01*
X71764Y380015D01*
X72115Y380206D01*
X72434Y380398D01*
X72705Y380573D01*
X72945Y380749D01*
X73136Y380892D01*
X73295Y381020D01*
X73391Y381132D01*
X73471Y381195D01*
X73487Y381212D01*
X73838Y381610D01*
X74125Y382025D01*
X74396Y382472D01*
X74619Y382934D01*
X74795Y383397D01*
X74954Y383859D01*
X75082Y384322D01*
X75194Y384753D01*
X75273Y385167D01*
X75337Y385566D01*
X75369Y385901D01*
X75401Y386204D01*
X75417Y386459D01*
X75433Y386555D01*
Y386635D01*
Y386699D01*
Y386746D01*
Y386778D01*
Y386794D01*
X75417Y387448D01*
X75353Y388070D01*
X75258Y388645D01*
X75130Y389187D01*
X74986Y389682D01*
X74811Y390144D01*
X74635Y390575D01*
X74460Y390942D01*
X74268Y391293D01*
X74093Y391580D01*
X73934Y391835D01*
X73774Y392042D01*
X73646Y392202D01*
X73551Y392313D01*
X73487Y392393D01*
X73471Y392409D01*
X73088Y392760D01*
X72689Y393079D01*
X72275Y393350D01*
X71844Y393574D01*
X71397Y393781D01*
X70967Y393941D01*
X70552Y394068D01*
X70137Y394180D01*
X69754Y394259D01*
X69403Y394323D01*
X69084Y394371D01*
X68813Y394403D01*
X68590Y394419D01*
X68414Y394435D01*
D02*
G37*
G36*
X90196Y376209D02*
X87229D01*
Y370419D01*
X81391D01*
Y376209D01*
X78424D01*
Y361486D01*
X81391D01*
Y367930D01*
X87229D01*
Y361486D01*
X90196D01*
Y376209D01*
D02*
G37*
G36*
X49058Y376257D02*
X48898D01*
X48467Y376241D01*
X48037Y376177D01*
X47654Y376097D01*
X47287Y375970D01*
X46936Y375842D01*
X46617Y375683D01*
X46314Y375523D01*
X46059Y375364D01*
X45820Y375188D01*
X45612Y375029D01*
X45421Y374869D01*
X45277Y374742D01*
X45166Y374614D01*
X45070Y374534D01*
X45022Y374470D01*
X45006Y374454D01*
X44751Y374088D01*
X44512Y373689D01*
X44320Y373258D01*
X44145Y372796D01*
X44001Y372317D01*
X43889Y371823D01*
X43794Y371344D01*
X43714Y370866D01*
X43650Y370419D01*
X43602Y369988D01*
X43570Y369605D01*
X43538Y369270D01*
Y369127D01*
Y368999D01*
X43523Y368888D01*
Y368792D01*
Y368712D01*
Y368664D01*
Y368632D01*
Y368616D01*
X43538Y367899D01*
X43586Y367245D01*
X43650Y366623D01*
X43746Y366064D01*
X43858Y365554D01*
X43969Y365091D01*
X44097Y364676D01*
X44240Y364294D01*
X44368Y363975D01*
X44496Y363703D01*
X44607Y363464D01*
X44719Y363273D01*
X44815Y363129D01*
X44878Y363018D01*
X44926Y362954D01*
X44942Y362938D01*
X45213Y362635D01*
X45517Y362364D01*
X45820Y362140D01*
X46123Y361949D01*
X46426Y361773D01*
X46729Y361630D01*
X47032Y361518D01*
X47319Y361438D01*
X47590Y361359D01*
X47829Y361311D01*
X48053Y361263D01*
X48244Y361247D01*
X48404Y361231D01*
X48515Y361215D01*
X48611D01*
X48994Y361231D01*
X49361Y361279D01*
X49696Y361343D01*
X50015Y361422D01*
X50318Y361534D01*
X50605Y361646D01*
X50860Y361773D01*
X51083Y361901D01*
X51291Y362013D01*
X51482Y362140D01*
X51642Y362252D01*
X51769Y362364D01*
X51881Y362443D01*
X51945Y362507D01*
X51993Y362555D01*
X52009Y362571D01*
X52248Y362842D01*
X52455Y363113D01*
X52631Y363416D01*
X52790Y363703D01*
X52918Y364007D01*
X53029Y364310D01*
X53109Y364613D01*
X53189Y364884D01*
X53237Y365155D01*
X53285Y365410D01*
X53301Y365634D01*
X53333Y365825D01*
Y365969D01*
X53348Y366096D01*
Y366160D01*
Y366192D01*
X53333Y366575D01*
X53301Y366958D01*
X53237Y367292D01*
X53157Y367627D01*
X53061Y367930D01*
X52950Y368218D01*
X52838Y368489D01*
X52726Y368712D01*
X52599Y368935D01*
X52487Y369111D01*
X52375Y369270D01*
X52280Y369414D01*
X52200Y369510D01*
X52136Y369589D01*
X52104Y369637D01*
X52088Y369653D01*
X51849Y369893D01*
X51594Y370100D01*
X51339Y370275D01*
X51083Y370435D01*
X50828Y370562D01*
X50573Y370674D01*
X50334Y370770D01*
X50094Y370834D01*
X49887Y370897D01*
X49680Y370945D01*
X49504Y370961D01*
X49361Y370993D01*
X49233D01*
X49137Y371009D01*
X49058D01*
X48770Y370993D01*
X48499Y370961D01*
X48228Y370897D01*
X47989Y370818D01*
X47750Y370722D01*
X47542Y370610D01*
X47335Y370499D01*
X47160Y370387D01*
X46984Y370259D01*
X46840Y370148D01*
X46729Y370036D01*
X46617Y369940D01*
X46537Y369861D01*
X46474Y369797D01*
X46442Y369765D01*
X46426Y369749D01*
X46458Y370211D01*
X46505Y370626D01*
X46569Y371009D01*
X46617Y371344D01*
X46681Y371663D01*
X46745Y371934D01*
X46824Y372174D01*
X46888Y372381D01*
X46952Y372556D01*
X47000Y372716D01*
X47064Y372844D01*
X47112Y372939D01*
X47144Y373003D01*
X47175Y373067D01*
X47207Y373083D01*
Y373099D01*
X47335Y373242D01*
X47447Y373370D01*
X47574Y373481D01*
X47702Y373577D01*
X47957Y373721D01*
X48196Y373816D01*
X48404Y373864D01*
X48579Y373896D01*
X48643Y373912D01*
X48723D01*
X48962Y373896D01*
X49169Y373848D01*
X49361Y373785D01*
X49520Y373705D01*
X49648Y373625D01*
X49728Y373561D01*
X49791Y373513D01*
X49807Y373497D01*
X49951Y373338D01*
X50079Y373131D01*
X50174Y372939D01*
X50238Y372732D01*
X50286Y372556D01*
X50334Y372413D01*
X50350Y372301D01*
Y372285D01*
Y372269D01*
X53077Y372556D01*
X53014Y372891D01*
X52934Y373194D01*
X52838Y373481D01*
X52726Y373753D01*
X52615Y373992D01*
X52503Y374215D01*
X52375Y374423D01*
X52264Y374598D01*
X52152Y374773D01*
X52041Y374901D01*
X51945Y375029D01*
X51849Y375125D01*
X51785Y375204D01*
X51722Y375252D01*
X51690Y375284D01*
X51674Y375300D01*
X51466Y375475D01*
X51243Y375619D01*
X51004Y375747D01*
X50780Y375858D01*
X50541Y375954D01*
X50318Y376018D01*
X49871Y376145D01*
X49680Y376177D01*
X49488Y376209D01*
X49313Y376225D01*
X49185Y376241D01*
X49058Y376257D01*
D02*
G37*
G36*
X97621Y394196D02*
X93155D01*
X90539Y384146D01*
X87891Y394196D01*
X83441D01*
Y379473D01*
X86184D01*
Y391053D01*
X89087Y379473D01*
X91958D01*
X94861Y391053D01*
X94878Y379473D01*
X97621D01*
Y394196D01*
D02*
G37*
G36*
X112791Y394435D02*
X112663D01*
X112105Y394419D01*
X111562Y394355D01*
X111052Y394244D01*
X110574Y394116D01*
X110127Y393956D01*
X109728Y393797D01*
X109345Y393605D01*
X109010Y393414D01*
X108707Y393223D01*
X108436Y393047D01*
X108213Y392872D01*
X108021Y392712D01*
X107862Y392585D01*
X107766Y392489D01*
X107686Y392409D01*
X107670Y392393D01*
X107335Y391995D01*
X107048Y391564D01*
X106793Y391117D01*
X106586Y390655D01*
X106394Y390176D01*
X106251Y389697D01*
X106123Y389235D01*
X106027Y388772D01*
X105948Y388358D01*
X105884Y387959D01*
X105852Y387592D01*
X105820Y387289D01*
X105804Y387034D01*
X105788Y386938D01*
Y386842D01*
Y386778D01*
Y386731D01*
Y386699D01*
Y386683D01*
X105804Y386045D01*
X105868Y385454D01*
X105964Y384896D01*
X106075Y384370D01*
X106219Y383875D01*
X106378Y383429D01*
X106554Y383014D01*
X106729Y382647D01*
X106905Y382312D01*
X107080Y382025D01*
X107240Y381786D01*
X107383Y381578D01*
X107495Y381419D01*
X107591Y381307D01*
X107654Y381227D01*
X107670Y381212D01*
X108037Y380860D01*
X108420Y380558D01*
X108819Y380286D01*
X109218Y380063D01*
X109616Y379872D01*
X110015Y379712D01*
X110414Y379568D01*
X110781Y379473D01*
X111132Y379377D01*
X111467Y379329D01*
X111754Y379281D01*
X111993Y379249D01*
X112200Y379234D01*
X112360Y379218D01*
X112488D01*
X112918Y379234D01*
X113333Y379265D01*
X113732Y379329D01*
X114099Y379393D01*
X114450Y379489D01*
X114769Y379584D01*
X115072Y379696D01*
X115327Y379808D01*
X115582Y379903D01*
X115789Y380015D01*
X115965Y380111D01*
X116124Y380206D01*
X116236Y380270D01*
X116332Y380334D01*
X116380Y380366D01*
X116396Y380382D01*
X116683Y380621D01*
X116938Y380877D01*
X117177Y381148D01*
X117401Y381451D01*
X117592Y381738D01*
X117783Y382041D01*
X117943Y382344D01*
X118087Y382631D01*
X118214Y382902D01*
X118326Y383158D01*
X118406Y383397D01*
X118485Y383588D01*
X118549Y383764D01*
X118581Y383875D01*
X118613Y383955D01*
Y383987D01*
X115726Y384880D01*
X115646Y384593D01*
X115566Y384306D01*
X115471Y384051D01*
X115375Y383828D01*
X115263Y383604D01*
X115167Y383413D01*
X115056Y383237D01*
X114960Y383078D01*
X114864Y382950D01*
X114769Y382822D01*
X114689Y382727D01*
X114625Y382647D01*
X114561Y382583D01*
X114513Y382535D01*
X114497Y382519D01*
X114481Y382504D01*
X114322Y382376D01*
X114146Y382264D01*
X113812Y382073D01*
X113477Y381945D01*
X113158Y381850D01*
X112870Y381802D01*
X112759Y381770D01*
X112647D01*
X112567Y381754D01*
X112456D01*
X112169Y381770D01*
X111882Y381802D01*
X111610Y381866D01*
X111371Y381945D01*
X111132Y382025D01*
X110924Y382121D01*
X110717Y382232D01*
X110542Y382344D01*
X110382Y382456D01*
X110239Y382567D01*
X110127Y382663D01*
X110015Y382743D01*
X109951Y382822D01*
X109888Y382886D01*
X109856Y382918D01*
X109840Y382934D01*
X109664Y383173D01*
X109521Y383445D01*
X109377Y383732D01*
X109265Y384051D01*
X109170Y384386D01*
X109090Y384705D01*
X108978Y385359D01*
X108931Y385678D01*
X108899Y385965D01*
X108883Y386220D01*
X108867Y386459D01*
X108851Y386635D01*
Y386778D01*
Y386874D01*
Y386906D01*
X108867Y387385D01*
X108899Y387831D01*
X108946Y388230D01*
X109010Y388613D01*
X109090Y388964D01*
X109170Y389267D01*
X109265Y389554D01*
X109361Y389793D01*
X109441Y390017D01*
X109537Y390208D01*
X109616Y390367D01*
X109696Y390495D01*
X109760Y390591D01*
X109808Y390671D01*
X109840Y390702D01*
X109856Y390718D01*
X110047Y390926D01*
X110270Y391101D01*
X110478Y391261D01*
X110701Y391404D01*
X110924Y391516D01*
X111148Y391612D01*
X111371Y391691D01*
X111578Y391755D01*
X111770Y391803D01*
X111945Y391835D01*
X112105Y391867D01*
X112248Y391883D01*
X112360Y391899D01*
X112520D01*
X112950Y391867D01*
X113333Y391787D01*
X113668Y391691D01*
X113971Y391564D01*
X114210Y391436D01*
X114306Y391388D01*
X114386Y391340D01*
X114450Y391293D01*
X114497Y391261D01*
X114513Y391245D01*
X114529Y391229D01*
X114817Y390958D01*
X115056Y390671D01*
X115247Y390367D01*
X115391Y390080D01*
X115502Y389825D01*
X115550Y389713D01*
X115582Y389618D01*
X115598Y389538D01*
X115614Y389474D01*
X115630Y389442D01*
Y389426D01*
X118565Y390128D01*
X118469Y390447D01*
X118358Y390750D01*
X118230Y391021D01*
X118118Y391293D01*
X117991Y391532D01*
X117863Y391755D01*
X117736Y391947D01*
X117624Y392138D01*
X117496Y392298D01*
X117401Y392441D01*
X117305Y392553D01*
X117209Y392649D01*
X117145Y392728D01*
X117098Y392776D01*
X117066Y392808D01*
X117050Y392824D01*
X116715Y393111D01*
X116380Y393350D01*
X116013Y393574D01*
X115646Y393749D01*
X115279Y393909D01*
X114912Y394036D01*
X114561Y394148D01*
X114226Y394228D01*
X113907Y394307D01*
X113604Y394355D01*
X113333Y394387D01*
X113110Y394403D01*
X112918Y394419D01*
X112791Y394435D01*
D02*
G37*
G36*
X127801Y394196D02*
X121165D01*
Y379473D01*
X124132D01*
Y385614D01*
X125089D01*
X125392Y385582D01*
X125647Y385566D01*
X125855Y385534D01*
X126014Y385502D01*
X126126Y385470D01*
X126206Y385454D01*
X126222Y385438D01*
X126397Y385375D01*
X126557Y385279D01*
X126716Y385183D01*
X126844Y385072D01*
X126955Y384976D01*
X127051Y384912D01*
X127099Y384848D01*
X127115Y384832D01*
X127211Y384737D01*
X127306Y384609D01*
X127418Y384465D01*
X127545Y384306D01*
X127801Y383955D01*
X128072Y383588D01*
X128311Y383237D01*
X128423Y383094D01*
X128503Y382950D01*
X128582Y382839D01*
X128646Y382759D01*
X128678Y382695D01*
X128694Y382679D01*
X130847Y379473D01*
X134405D01*
X132602Y382328D01*
X132411Y382647D01*
X132219Y382918D01*
X132044Y383189D01*
X131884Y383429D01*
X131741Y383652D01*
X131597Y383843D01*
X131469Y384019D01*
X131358Y384178D01*
X131262Y384306D01*
X131166Y384418D01*
X131087Y384513D01*
X131023Y384593D01*
X130975Y384641D01*
X130943Y384689D01*
X130911Y384721D01*
X130672Y384960D01*
X130401Y385199D01*
X130130Y385407D01*
X129874Y385582D01*
X129651Y385742D01*
X129476Y385853D01*
X129412Y385901D01*
X129364Y385917D01*
X129332Y385949D01*
X129316D01*
X129667Y386013D01*
X130002Y386092D01*
X130305Y386188D01*
X130592Y386284D01*
X130863Y386396D01*
X131103Y386507D01*
X131310Y386619D01*
X131501Y386746D01*
X131677Y386858D01*
X131820Y386970D01*
X131948Y387066D01*
X132060Y387145D01*
X132140Y387225D01*
X132187Y387273D01*
X132219Y387305D01*
X132235Y387321D01*
X132411Y387528D01*
X132554Y387751D01*
X132682Y387975D01*
X132794Y388214D01*
X132889Y388437D01*
X132969Y388661D01*
X133081Y389107D01*
X133128Y389299D01*
X133160Y389490D01*
X133176Y389650D01*
X133192Y389793D01*
X133208Y389905D01*
Y389985D01*
Y390048D01*
Y390064D01*
X133176Y390543D01*
X133112Y390974D01*
X133001Y391372D01*
X132889Y391707D01*
X132825Y391851D01*
X132762Y391995D01*
X132714Y392106D01*
X132650Y392202D01*
X132618Y392282D01*
X132586Y392329D01*
X132554Y392361D01*
Y392377D01*
X132299Y392728D01*
X132012Y393031D01*
X131741Y393271D01*
X131469Y393478D01*
X131214Y393621D01*
X131119Y393669D01*
X131023Y393717D01*
X130943Y393749D01*
X130895Y393781D01*
X130863Y393797D01*
X130847D01*
X130640Y393861D01*
X130401Y393925D01*
X130130Y393988D01*
X129859Y394020D01*
X129300Y394100D01*
X128726Y394148D01*
X128471Y394164D01*
X128216Y394180D01*
X127992D01*
X127801Y394196D01*
D02*
G37*
G36*
X53548D02*
X46912D01*
Y379473D01*
X49879D01*
Y385614D01*
X50836D01*
X51139Y385582D01*
X51395Y385566D01*
X51602Y385534D01*
X51761Y385502D01*
X51873Y385470D01*
X51953Y385454D01*
X51969Y385438D01*
X52144Y385375D01*
X52304Y385279D01*
X52463Y385183D01*
X52591Y385072D01*
X52702Y384976D01*
X52798Y384912D01*
X52846Y384848D01*
X52862Y384832D01*
X52958Y384737D01*
X53053Y384609D01*
X53165Y384465D01*
X53293Y384306D01*
X53548Y383955D01*
X53819Y383588D01*
X54058Y383237D01*
X54170Y383094D01*
X54250Y382950D01*
X54330Y382839D01*
X54393Y382759D01*
X54425Y382695D01*
X54441Y382679D01*
X56595Y379473D01*
X60152D01*
X58349Y382328D01*
X58158Y382647D01*
X57966Y382918D01*
X57791Y383189D01*
X57631Y383429D01*
X57488Y383652D01*
X57344Y383843D01*
X57217Y384019D01*
X57105Y384178D01*
X57009Y384306D01*
X56914Y384418D01*
X56834Y384513D01*
X56770Y384593D01*
X56722Y384641D01*
X56690Y384689D01*
X56658Y384721D01*
X56419Y384960D01*
X56148Y385199D01*
X55877Y385407D01*
X55622Y385582D01*
X55398Y385742D01*
X55223Y385853D01*
X55159Y385901D01*
X55111Y385917D01*
X55079Y385949D01*
X55063D01*
X55414Y386013D01*
X55749Y386092D01*
X56052Y386188D01*
X56339Y386284D01*
X56611Y386396D01*
X56850Y386507D01*
X57057Y386619D01*
X57249Y386746D01*
X57424Y386858D01*
X57568Y386970D01*
X57695Y387066D01*
X57807Y387145D01*
X57887Y387225D01*
X57934Y387273D01*
X57966Y387305D01*
X57982Y387321D01*
X58158Y387528D01*
X58301Y387751D01*
X58429Y387975D01*
X58541Y388214D01*
X58636Y388437D01*
X58716Y388661D01*
X58828Y389107D01*
X58876Y389299D01*
X58907Y389490D01*
X58924Y389650D01*
X58939Y389793D01*
X58955Y389905D01*
Y389985D01*
Y390048D01*
Y390064D01*
X58924Y390543D01*
X58860Y390974D01*
X58748Y391372D01*
X58636Y391707D01*
X58573Y391851D01*
X58509Y391995D01*
X58461Y392106D01*
X58397Y392202D01*
X58365Y392282D01*
X58333Y392329D01*
X58301Y392361D01*
Y392377D01*
X58046Y392728D01*
X57759Y393031D01*
X57488Y393271D01*
X57217Y393478D01*
X56961Y393621D01*
X56866Y393669D01*
X56770Y393717D01*
X56690Y393749D01*
X56642Y393781D01*
X56611Y393797D01*
X56595D01*
X56387Y393861D01*
X56148Y393925D01*
X55877Y393988D01*
X55606Y394020D01*
X55047Y394100D01*
X54473Y394148D01*
X54218Y394164D01*
X53963Y394180D01*
X53739D01*
X53548Y394196D01*
D02*
G37*
G36*
X103475D02*
X100508D01*
Y379473D01*
X103475D01*
Y394196D01*
D02*
G37*
G36*
X75441Y376209D02*
X70975D01*
X68359Y366160D01*
X65711Y376209D01*
X61260D01*
Y361486D01*
X64004D01*
Y373067D01*
X66907Y361486D01*
X69778D01*
X72681Y373067D01*
X72697Y361486D01*
X75441D01*
Y376209D01*
D02*
G37*
G36*
X135066Y376018D02*
X127601D01*
X126150Y368345D01*
X128431Y368026D01*
X128606Y368218D01*
X128798Y368377D01*
X128989Y368521D01*
X129180Y368648D01*
X129356Y368744D01*
X129547Y368840D01*
X129882Y368967D01*
X130185Y369031D01*
X130297Y369063D01*
X130409Y369079D01*
X130505Y369095D01*
X130792D01*
X130967Y369063D01*
X131270Y368983D01*
X131541Y368872D01*
X131765Y368760D01*
X131956Y368632D01*
X132084Y368521D01*
X132163Y368441D01*
X132195Y368425D01*
Y368409D01*
X132403Y368122D01*
X132562Y367803D01*
X132674Y367468D01*
X132738Y367133D01*
X132786Y366830D01*
X132802Y366702D01*
Y366591D01*
X132817Y366495D01*
Y366431D01*
Y366383D01*
Y366367D01*
Y366112D01*
X132786Y365857D01*
X132754Y365634D01*
X132722Y365410D01*
X132674Y365219D01*
X132626Y365043D01*
X132562Y364884D01*
X132514Y364740D01*
X132451Y364613D01*
X132387Y364501D01*
X132339Y364405D01*
X132291Y364325D01*
X132259Y364278D01*
X132227Y364230D01*
X132195Y364214D01*
Y364198D01*
X132084Y364070D01*
X131956Y363959D01*
X131701Y363783D01*
X131462Y363656D01*
X131222Y363576D01*
X131015Y363512D01*
X130840Y363496D01*
X130776Y363480D01*
X130696D01*
X130409Y363512D01*
X130154Y363576D01*
X129914Y363656D01*
X129723Y363767D01*
X129547Y363863D01*
X129436Y363959D01*
X129356Y364022D01*
X129324Y364038D01*
X129133Y364262D01*
X128973Y364517D01*
X128846Y364756D01*
X128750Y365011D01*
X128686Y365219D01*
X128654Y365394D01*
X128638Y365458D01*
X128622Y365506D01*
Y365538D01*
Y365554D01*
X125815Y365251D01*
X125879Y364916D01*
X125942Y364597D01*
X126038Y364294D01*
X126150Y364007D01*
X126277Y363751D01*
X126405Y363512D01*
X126533Y363289D01*
X126660Y363081D01*
X126788Y362906D01*
X126916Y362746D01*
X127027Y362619D01*
X127123Y362507D01*
X127219Y362411D01*
X127282Y362348D01*
X127314Y362316D01*
X127330Y362300D01*
X127585Y362108D01*
X127841Y361949D01*
X128112Y361805D01*
X128399Y361678D01*
X128670Y361566D01*
X128957Y361486D01*
X129484Y361359D01*
X129723Y361311D01*
X129946Y361279D01*
X130154Y361247D01*
X130329Y361231D01*
X130473Y361215D01*
X130664D01*
X131127Y361231D01*
X131573Y361295D01*
X131988Y361390D01*
X132371Y361518D01*
X132722Y361662D01*
X133041Y361837D01*
X133344Y362013D01*
X133615Y362188D01*
X133854Y362364D01*
X134062Y362539D01*
X134237Y362714D01*
X134381Y362858D01*
X134508Y362986D01*
X134588Y363081D01*
X134636Y363145D01*
X134652Y363161D01*
X134843Y363432D01*
X135003Y363719D01*
X135146Y363991D01*
X135274Y364278D01*
X135370Y364549D01*
X135465Y364820D01*
X135529Y365075D01*
X135593Y365330D01*
X135625Y365554D01*
X135657Y365761D01*
X135689Y365952D01*
X135705Y366112D01*
X135721Y366240D01*
Y366335D01*
Y366399D01*
Y366415D01*
X135705Y366814D01*
X135657Y367197D01*
X135593Y367548D01*
X135513Y367899D01*
X135417Y368202D01*
X135306Y368505D01*
X135178Y368776D01*
X135066Y369015D01*
X134939Y369239D01*
X134811Y369430D01*
X134700Y369589D01*
X134604Y369717D01*
X134524Y369829D01*
X134460Y369908D01*
X134412Y369956D01*
X134397Y369972D01*
X134141Y370211D01*
X133886Y370419D01*
X133615Y370610D01*
X133344Y370770D01*
X133073Y370897D01*
X132817Y371009D01*
X132562Y371105D01*
X132307Y371169D01*
X132084Y371232D01*
X131876Y371264D01*
X131685Y371296D01*
X131525Y371328D01*
X131382D01*
X131286Y371344D01*
X131206D01*
X130840Y371328D01*
X130489Y371264D01*
X130169Y371200D01*
X129866Y371105D01*
X129627Y371025D01*
X129531Y370977D01*
X129436Y370945D01*
X129372Y370913D01*
X129324Y370882D01*
X129292Y370866D01*
X129276D01*
X129723Y373370D01*
X135066D01*
Y376018D01*
D02*
G37*
G36*
X150045Y376209D02*
X146886D01*
X143281Y365314D01*
X139549Y376209D01*
X136343D01*
X141591Y361486D01*
X144781D01*
X150045Y376209D01*
D02*
G37*
G36*
X101314Y372158D02*
X92509D01*
Y369813D01*
X96257Y369829D01*
X96544D01*
X96800Y369845D01*
X97023D01*
X97214Y369861D01*
X97374D01*
X97470Y369877D01*
X97565D01*
X97358Y369669D01*
X97135Y369430D01*
X96895Y369159D01*
X96656Y368888D01*
X96433Y368648D01*
X96337Y368537D01*
X96257Y368457D01*
X96194Y368377D01*
X96146Y368313D01*
X96114Y368281D01*
X96098Y368265D01*
X92110Y363688D01*
Y361486D01*
X101633D01*
Y363959D01*
X97119D01*
X96911Y363943D01*
X96672D01*
X96433Y363927D01*
X96194Y363911D01*
X96002D01*
X95922Y363895D01*
X95811D01*
X97230Y365442D01*
X101314Y370164D01*
Y372158D01*
D02*
G37*
G36*
X39295Y376257D02*
X36999D01*
X36903Y376002D01*
X36791Y375762D01*
X36520Y375316D01*
X36233Y374917D01*
X35930Y374566D01*
X35786Y374407D01*
X35659Y374279D01*
X35547Y374151D01*
X35435Y374056D01*
X35356Y373976D01*
X35292Y373928D01*
X35244Y373896D01*
X35228Y373880D01*
X34749Y373529D01*
X34303Y373242D01*
X33904Y373003D01*
X33553Y372827D01*
X33394Y372748D01*
X33250Y372684D01*
X33138Y372636D01*
X33027Y372588D01*
X32947Y372556D01*
X32883Y372540D01*
X32851Y372524D01*
X32835D01*
Y369956D01*
X33218Y370100D01*
X33585Y370243D01*
X33952Y370403D01*
X34287Y370578D01*
X34606Y370754D01*
X34909Y370929D01*
X35180Y371105D01*
X35435Y371280D01*
X35675Y371440D01*
X35866Y371599D01*
X36057Y371743D01*
X36201Y371855D01*
X36313Y371950D01*
X36408Y372030D01*
X36456Y372078D01*
X36472Y372094D01*
Y361486D01*
X39295D01*
Y376257D01*
D02*
G37*
%LPD*%
G36*
X142891Y391883D02*
X143210Y391851D01*
X143513Y391787D01*
X143784Y391707D01*
X144055Y391612D01*
X144294Y391500D01*
X144518Y391388D01*
X144725Y391277D01*
X144900Y391149D01*
X145060Y391037D01*
X145188Y390926D01*
X145299Y390830D01*
X145395Y390750D01*
X145459Y390686D01*
X145491Y390655D01*
X145507Y390639D01*
X145698Y390399D01*
X145873Y390112D01*
X146017Y389825D01*
X146161Y389522D01*
X146256Y389219D01*
X146352Y388900D01*
X146432Y388581D01*
X146480Y388278D01*
X146528Y387991D01*
X146559Y387719D01*
X146591Y387480D01*
X146607Y387273D01*
X146623Y387097D01*
Y386970D01*
Y386890D01*
Y386858D01*
X146607Y386396D01*
X146575Y385949D01*
X146511Y385550D01*
X146448Y385167D01*
X146352Y384832D01*
X146256Y384513D01*
X146161Y384226D01*
X146049Y383971D01*
X145937Y383748D01*
X145842Y383556D01*
X145746Y383381D01*
X145650Y383253D01*
X145586Y383142D01*
X145522Y383078D01*
X145491Y383030D01*
X145475Y383014D01*
X145251Y382791D01*
X145012Y382599D01*
X144773Y382424D01*
X144534Y382280D01*
X144294Y382153D01*
X144039Y382057D01*
X143816Y381961D01*
X143592Y381897D01*
X143369Y381850D01*
X143178Y381802D01*
X143002Y381770D01*
X142859Y381754D01*
X142731D01*
X142635Y381738D01*
X142556D01*
X142237Y381754D01*
X141918Y381802D01*
X141615Y381866D01*
X141343Y381945D01*
X141088Y382041D01*
X140849Y382153D01*
X140625Y382264D01*
X140418Y382392D01*
X140243Y382504D01*
X140083Y382615D01*
X139940Y382727D01*
X139828Y382822D01*
X139732Y382918D01*
X139669Y382982D01*
X139637Y383014D01*
X139621Y383030D01*
X139413Y383285D01*
X139238Y383572D01*
X139094Y383859D01*
X138951Y384162D01*
X138839Y384482D01*
X138759Y384800D01*
X138680Y385103D01*
X138616Y385407D01*
X138568Y385694D01*
X138536Y385965D01*
X138504Y386204D01*
X138488Y386412D01*
Y386587D01*
X138472Y386715D01*
Y386794D01*
Y386826D01*
X138488Y387289D01*
X138520Y387719D01*
X138568Y388118D01*
X138648Y388485D01*
X138727Y388836D01*
X138823Y389139D01*
X138935Y389426D01*
X139030Y389682D01*
X139142Y389905D01*
X139238Y390096D01*
X139333Y390256D01*
X139413Y390383D01*
X139493Y390495D01*
X139541Y390559D01*
X139573Y390607D01*
X139589Y390623D01*
X139812Y390846D01*
X140035Y391037D01*
X140290Y391213D01*
X140530Y391356D01*
X140785Y391484D01*
X141024Y391596D01*
X141264Y391675D01*
X141503Y391739D01*
X141710Y391787D01*
X141918Y391835D01*
X142093Y391867D01*
X142253Y391883D01*
X142380Y391899D01*
X142556D01*
X142891Y391883D01*
D02*
G37*
G36*
X38394Y391691D02*
X38602D01*
X38793Y391675D01*
X38969D01*
X39128Y391660D01*
X39272D01*
X39383Y391643D01*
X39479Y391628D01*
X39559D01*
X39622Y391612D01*
X39702Y391596D01*
X39734D01*
X39989Y391532D01*
X40229Y391436D01*
X40436Y391340D01*
X40595Y391229D01*
X40739Y391117D01*
X40851Y391021D01*
X40915Y390958D01*
X40931Y390942D01*
X41090Y390734D01*
X41202Y390511D01*
X41297Y390288D01*
X41345Y390080D01*
X41377Y389905D01*
X41409Y389745D01*
Y389650D01*
Y389634D01*
Y389618D01*
X41393Y389379D01*
X41361Y389155D01*
X41297Y388964D01*
X41234Y388804D01*
X41170Y388661D01*
X41106Y388565D01*
X41074Y388485D01*
X41058Y388469D01*
X40931Y388294D01*
X40771Y388150D01*
X40612Y388023D01*
X40468Y387911D01*
X40340Y387831D01*
X40229Y387783D01*
X40165Y387751D01*
X40133Y387735D01*
X40005Y387704D01*
X39862Y387656D01*
X39702Y387640D01*
X39511Y387608D01*
X39128Y387560D01*
X38745Y387544D01*
X38378Y387528D01*
X38219Y387512D01*
X36161D01*
Y391707D01*
X38155D01*
X38394Y391691D01*
D02*
G37*
G36*
X68638Y391883D02*
X68957Y391851D01*
X69260Y391787D01*
X69531Y391707D01*
X69802Y391612D01*
X70041Y391500D01*
X70265Y391388D01*
X70472Y391277D01*
X70648Y391149D01*
X70807Y391037D01*
X70935Y390926D01*
X71046Y390830D01*
X71142Y390750D01*
X71206Y390686D01*
X71238Y390655D01*
X71254Y390639D01*
X71445Y390399D01*
X71621Y390112D01*
X71764Y389825D01*
X71908Y389522D01*
X72003Y389219D01*
X72099Y388900D01*
X72179Y388581D01*
X72227Y388278D01*
X72275Y387991D01*
X72306Y387719D01*
X72338Y387480D01*
X72354Y387273D01*
X72370Y387097D01*
Y386970D01*
Y386890D01*
Y386858D01*
X72354Y386396D01*
X72323Y385949D01*
X72259Y385550D01*
X72195Y385167D01*
X72099Y384832D01*
X72003Y384513D01*
X71908Y384226D01*
X71796Y383971D01*
X71684Y383748D01*
X71589Y383556D01*
X71493Y383381D01*
X71397Y383253D01*
X71333Y383142D01*
X71270Y383078D01*
X71238Y383030D01*
X71222Y383014D01*
X70999Y382791D01*
X70759Y382599D01*
X70520Y382424D01*
X70281Y382280D01*
X70041Y382153D01*
X69786Y382057D01*
X69563Y381961D01*
X69340Y381897D01*
X69116Y381850D01*
X68925Y381802D01*
X68749Y381770D01*
X68606Y381754D01*
X68478D01*
X68383Y381738D01*
X68303D01*
X67984Y381754D01*
X67665Y381802D01*
X67362Y381866D01*
X67091Y381945D01*
X66835Y382041D01*
X66596Y382153D01*
X66373Y382264D01*
X66165Y382392D01*
X65990Y382504D01*
X65830Y382615D01*
X65687Y382727D01*
X65575Y382822D01*
X65479Y382918D01*
X65416Y382982D01*
X65384Y383014D01*
X65368Y383030D01*
X65160Y383285D01*
X64985Y383572D01*
X64841Y383859D01*
X64698Y384162D01*
X64586Y384482D01*
X64506Y384800D01*
X64427Y385103D01*
X64363Y385407D01*
X64315Y385694D01*
X64283Y385965D01*
X64251Y386204D01*
X64235Y386412D01*
Y386587D01*
X64219Y386715D01*
Y386794D01*
Y386826D01*
X64235Y387289D01*
X64267Y387719D01*
X64315Y388118D01*
X64395Y388485D01*
X64475Y388836D01*
X64570Y389139D01*
X64682Y389426D01*
X64778Y389682D01*
X64889Y389905D01*
X64985Y390096D01*
X65081Y390256D01*
X65160Y390383D01*
X65240Y390495D01*
X65288Y390559D01*
X65320Y390607D01*
X65336Y390623D01*
X65559Y390846D01*
X65782Y391037D01*
X66038Y391213D01*
X66277Y391356D01*
X66532Y391484D01*
X66771Y391596D01*
X67011Y391675D01*
X67250Y391739D01*
X67457Y391787D01*
X67665Y391835D01*
X67840Y391867D01*
X68000Y391883D01*
X68127Y391899D01*
X68303D01*
X68638Y391883D01*
D02*
G37*
G36*
X48914Y368904D02*
X49185Y368824D01*
X49425Y368728D01*
X49632Y368600D01*
X49791Y368473D01*
X49919Y368377D01*
X49983Y368297D01*
X50015Y368265D01*
X50110Y368138D01*
X50206Y367978D01*
X50350Y367659D01*
X50445Y367308D01*
X50525Y366958D01*
X50557Y366654D01*
X50573Y366511D01*
Y366399D01*
X50589Y366303D01*
Y366224D01*
Y366176D01*
Y366160D01*
Y365905D01*
X50573Y365681D01*
X50541Y365458D01*
X50509Y365267D01*
X50461Y365075D01*
X50430Y364916D01*
X50382Y364772D01*
X50334Y364645D01*
X50270Y364533D01*
X50222Y364437D01*
X50142Y364278D01*
X50079Y364198D01*
X50063Y364166D01*
X49855Y363959D01*
X49632Y363815D01*
X49425Y363703D01*
X49217Y363640D01*
X49026Y363592D01*
X48882Y363576D01*
X48787Y363560D01*
X48755D01*
X48611Y363576D01*
X48451Y363592D01*
X48180Y363671D01*
X47941Y363799D01*
X47718Y363927D01*
X47542Y364054D01*
X47415Y364182D01*
X47335Y364262D01*
X47303Y364294D01*
X47096Y364597D01*
X46936Y364948D01*
X46840Y365299D01*
X46761Y365634D01*
X46713Y365937D01*
X46697Y366080D01*
Y366192D01*
X46681Y366287D01*
Y366351D01*
Y366399D01*
Y366415D01*
X46713Y366846D01*
X46777Y367229D01*
X46856Y367564D01*
X46968Y367819D01*
X47064Y368026D01*
X47160Y368186D01*
X47223Y368265D01*
X47239Y368297D01*
X47463Y368505D01*
X47686Y368664D01*
X47925Y368776D01*
X48133Y368856D01*
X48324Y368904D01*
X48483Y368919D01*
X48579Y368935D01*
X48611D01*
X48914Y368904D01*
D02*
G37*
G36*
X127545Y391691D02*
X127928D01*
X128088Y391675D01*
X128327D01*
X128407Y391660D01*
X128534D01*
X128598Y391643D01*
X128614D01*
X128869Y391580D01*
X129109Y391500D01*
X129300Y391420D01*
X129460Y391309D01*
X129587Y391229D01*
X129667Y391149D01*
X129731Y391085D01*
X129747Y391069D01*
X129874Y390878D01*
X129970Y390686D01*
X130050Y390495D01*
X130098Y390304D01*
X130130Y390128D01*
X130146Y390001D01*
Y389905D01*
Y389889D01*
Y389873D01*
X130130Y389634D01*
X130098Y389410D01*
X130050Y389219D01*
X130002Y389059D01*
X129938Y388932D01*
X129890Y388836D01*
X129859Y388772D01*
X129843Y388756D01*
X129715Y388597D01*
X129587Y388469D01*
X129444Y388358D01*
X129300Y388278D01*
X129188Y388214D01*
X129093Y388166D01*
X129029Y388150D01*
X128997Y388134D01*
X128885Y388102D01*
X128726Y388070D01*
X128551Y388055D01*
X128359Y388039D01*
X127928Y388007D01*
X127466Y387975D01*
X127035D01*
X126844Y387959D01*
X124132D01*
Y391707D01*
X127322D01*
X127545Y391691D01*
D02*
G37*
G36*
X53293D02*
X53675D01*
X53835Y391675D01*
X54074D01*
X54154Y391660D01*
X54282D01*
X54345Y391643D01*
X54361D01*
X54617Y391580D01*
X54856Y391500D01*
X55047Y391420D01*
X55207Y391309D01*
X55335Y391229D01*
X55414Y391149D01*
X55478Y391085D01*
X55494Y391069D01*
X55622Y390878D01*
X55717Y390686D01*
X55797Y390495D01*
X55845Y390304D01*
X55877Y390128D01*
X55893Y390001D01*
Y389905D01*
Y389889D01*
Y389873D01*
X55877Y389634D01*
X55845Y389410D01*
X55797Y389219D01*
X55749Y389059D01*
X55685Y388932D01*
X55637Y388836D01*
X55606Y388772D01*
X55590Y388756D01*
X55462Y388597D01*
X55335Y388469D01*
X55191Y388358D01*
X55047Y388278D01*
X54936Y388214D01*
X54840Y388166D01*
X54776Y388150D01*
X54744Y388134D01*
X54633Y388102D01*
X54473Y388070D01*
X54298Y388055D01*
X54106Y388039D01*
X53675Y388007D01*
X53213Y387975D01*
X52782D01*
X52591Y387959D01*
X49879D01*
Y391707D01*
X53069D01*
X53293Y391691D01*
D02*
G37*
%LPC*%
G36*
X121672Y85090D02*
X117798D01*
Y65866D01*
X121672D01*
Y85090D01*
D02*
G37*
G36*
X76517D02*
X72643D01*
Y74426D01*
Y74009D01*
Y73635D01*
X72622Y73281D01*
Y72947D01*
X72601Y72656D01*
X72580Y72385D01*
X72559Y72135D01*
Y71927D01*
X72539Y71739D01*
X72518Y71573D01*
X72497Y71448D01*
X72476Y71323D01*
Y71239D01*
X72455Y71177D01*
Y71156D01*
Y71135D01*
X72372Y70781D01*
X72226Y70469D01*
X72059Y70177D01*
X71893Y69948D01*
X71726Y69761D01*
X71581Y69615D01*
X71497Y69511D01*
X71455Y69490D01*
X71101Y69261D01*
X70706Y69115D01*
X70289Y68990D01*
X69893Y68907D01*
X69518Y68865D01*
X69373Y68844D01*
X69227D01*
X69123Y68823D01*
X68956D01*
X68373Y68844D01*
X67873Y68927D01*
X67436Y69052D01*
X67061Y69177D01*
X66769Y69302D01*
X66561Y69427D01*
X66498Y69469D01*
X66436Y69511D01*
X66415Y69531D01*
X66394D01*
X66082Y69823D01*
X65811Y70135D01*
X65603Y70448D01*
X65457Y70739D01*
X65332Y71010D01*
X65270Y71239D01*
X65228Y71323D01*
Y71385D01*
X65207Y71406D01*
Y71427D01*
X65186Y71593D01*
X65166Y71781D01*
X65145Y71989D01*
Y72239D01*
X65103Y72760D01*
Y73322D01*
Y73572D01*
X65082Y73822D01*
Y74051D01*
Y74259D01*
Y74426D01*
Y74551D01*
Y74634D01*
Y74655D01*
Y85090D01*
X61208D01*
Y74801D01*
Y74218D01*
X61229Y73655D01*
X61250Y73156D01*
X61271Y72677D01*
X61291Y72239D01*
X61333Y71843D01*
X61354Y71469D01*
X61396Y71156D01*
X61437Y70865D01*
X61458Y70615D01*
X61500Y70406D01*
X61521Y70240D01*
X61541Y70094D01*
X61562Y70010D01*
X61583Y69948D01*
Y69927D01*
X61708Y69511D01*
X61854Y69115D01*
X62041Y68761D01*
X62229Y68428D01*
X62395Y68157D01*
X62541Y67969D01*
X62583Y67886D01*
X62625Y67824D01*
X62666Y67803D01*
Y67782D01*
X62999Y67428D01*
X63374Y67095D01*
X63749Y66824D01*
X64103Y66595D01*
X64416Y66386D01*
X64562Y66324D01*
X64686Y66262D01*
X64770Y66199D01*
X64853Y66157D01*
X64895Y66136D01*
X64915D01*
X65186Y66032D01*
X65499Y65928D01*
X66165Y65782D01*
X66852Y65658D01*
X67540Y65595D01*
X67852Y65574D01*
X68144Y65553D01*
X68394Y65532D01*
X68623D01*
X68810Y65512D01*
X69498D01*
X69893Y65532D01*
X70268Y65574D01*
X70622Y65595D01*
X70935Y65658D01*
X71247Y65699D01*
X71518Y65741D01*
X71768Y65803D01*
X71997Y65866D01*
X72205Y65907D01*
X72372Y65970D01*
X72518Y66012D01*
X72622Y66032D01*
X72705Y66074D01*
X72747Y66095D01*
X72768D01*
X73268Y66324D01*
X73726Y66595D01*
X74101Y66845D01*
X74434Y67095D01*
X74684Y67324D01*
X74871Y67490D01*
X74976Y67615D01*
X75017Y67636D01*
Y67657D01*
X75309Y68053D01*
X75559Y68448D01*
X75767Y68844D01*
X75913Y69240D01*
X76038Y69573D01*
X76079Y69719D01*
X76121Y69844D01*
X76142Y69927D01*
X76163Y70010D01*
X76184Y70052D01*
Y70073D01*
X76246Y70365D01*
X76288Y70698D01*
X76329Y71052D01*
X76371Y71448D01*
X76433Y72260D01*
X76475Y73051D01*
X76496Y73447D01*
Y73801D01*
X76517Y74114D01*
Y74405D01*
Y74634D01*
Y74822D01*
Y74926D01*
Y74968D01*
Y85090D01*
D02*
G37*
G36*
X87701D02*
X80620D01*
Y65866D01*
X84494D01*
Y73114D01*
X87493D01*
X87951Y73135D01*
X88368D01*
X88764Y73156D01*
X89118Y73176D01*
X89451Y73197D01*
X89763Y73218D01*
X90034Y73260D01*
X90263Y73281D01*
X90471Y73301D01*
X90659Y73322D01*
X90805Y73343D01*
X90909Y73364D01*
X90992D01*
X91034Y73385D01*
X91055D01*
X91430Y73489D01*
X91805Y73614D01*
X92138Y73760D01*
X92429Y73905D01*
X92700Y74051D01*
X92887Y74176D01*
X93013Y74259D01*
X93033Y74280D01*
X93054D01*
X93408Y74572D01*
X93742Y74884D01*
X94012Y75197D01*
X94262Y75488D01*
X94450Y75759D01*
X94575Y75988D01*
X94637Y76072D01*
X94679Y76134D01*
X94700Y76155D01*
Y76176D01*
X94908Y76655D01*
X95075Y77154D01*
X95179Y77654D01*
X95262Y78113D01*
X95283Y78342D01*
X95304Y78529D01*
X95324Y78717D01*
X95345Y78862D01*
Y78987D01*
Y79071D01*
Y79133D01*
Y79154D01*
X95324Y79571D01*
X95304Y79987D01*
X95241Y80362D01*
X95179Y80716D01*
X95095Y81049D01*
X94991Y81362D01*
X94887Y81633D01*
X94783Y81903D01*
X94679Y82132D01*
X94575Y82320D01*
X94491Y82507D01*
X94387Y82653D01*
X94325Y82757D01*
X94262Y82841D01*
X94241Y82882D01*
X94221Y82903D01*
X94012Y83174D01*
X93783Y83403D01*
X93554Y83611D01*
X93304Y83820D01*
X92846Y84153D01*
X92409Y84403D01*
X92034Y84590D01*
X91867Y84653D01*
X91721Y84715D01*
X91617Y84757D01*
X91534Y84778D01*
X91471Y84798D01*
X91450D01*
X91221Y84840D01*
X90950Y84902D01*
X90638Y84944D01*
X90284Y84965D01*
X89909Y84986D01*
X89534Y85028D01*
X88743Y85048D01*
X88368Y85069D01*
X88035D01*
X87701Y85090D01*
D02*
G37*
G36*
X106009D02*
X98532D01*
Y65866D01*
X106217D01*
X106592Y65887D01*
X106946Y65907D01*
X107259Y65928D01*
X107571Y65949D01*
X107863Y65991D01*
X108113Y66032D01*
X108342Y66074D01*
X108550Y66095D01*
X108738Y66136D01*
X108904Y66178D01*
X109029Y66199D01*
X109133Y66220D01*
X109196Y66241D01*
X109237Y66262D01*
X109258D01*
X109862Y66491D01*
X110404Y66740D01*
X110862Y66990D01*
X111258Y67240D01*
X111425Y67344D01*
X111570Y67449D01*
X111674Y67553D01*
X111778Y67636D01*
X111862Y67699D01*
X111924Y67761D01*
X111945Y67782D01*
X111966Y67803D01*
X112445Y68323D01*
X112862Y68886D01*
X113216Y69448D01*
X113507Y69990D01*
X113632Y70240D01*
X113736Y70469D01*
X113820Y70677D01*
X113903Y70844D01*
X113945Y70989D01*
X113986Y71114D01*
X114028Y71177D01*
Y71198D01*
X114236Y71864D01*
X114382Y72551D01*
X114486Y73239D01*
X114549Y73885D01*
X114590Y74176D01*
X114611Y74447D01*
Y74676D01*
X114632Y74884D01*
Y75051D01*
Y75176D01*
Y75259D01*
Y75280D01*
Y75780D01*
X114611Y76259D01*
X114570Y76696D01*
X114528Y77134D01*
X114486Y77529D01*
X114424Y77904D01*
X114361Y78258D01*
X114320Y78571D01*
X114257Y78842D01*
X114195Y79092D01*
X114132Y79321D01*
X114090Y79487D01*
X114049Y79633D01*
X114007Y79737D01*
X113986Y79800D01*
Y79820D01*
X113736Y80487D01*
X113445Y81091D01*
X113132Y81633D01*
X112987Y81862D01*
X112841Y82070D01*
X112695Y82278D01*
X112570Y82445D01*
X112445Y82591D01*
X112362Y82716D01*
X112278Y82820D01*
X112216Y82882D01*
X112174Y82924D01*
X112153Y82945D01*
X111674Y83382D01*
X111195Y83757D01*
X110716Y84069D01*
X110258Y84298D01*
X109862Y84486D01*
X109696Y84569D01*
X109550Y84611D01*
X109425Y84653D01*
X109342Y84694D01*
X109279Y84715D01*
X109258D01*
X109008Y84778D01*
X108738Y84840D01*
X108154Y84923D01*
X107550Y85007D01*
X106967Y85048D01*
X106697Y85069D01*
X106217D01*
X106009Y85090D01*
D02*
G37*
%LPD*%
G36*
X87410Y81820D02*
X87681D01*
X87930Y81799D01*
X88160D01*
X88368Y81778D01*
X88555D01*
X88701Y81757D01*
X88826Y81737D01*
X88930D01*
X89014Y81716D01*
X89118Y81695D01*
X89159D01*
X89493Y81612D01*
X89805Y81487D01*
X90076Y81362D01*
X90284Y81216D01*
X90471Y81070D01*
X90617Y80945D01*
X90701Y80862D01*
X90721Y80841D01*
X90930Y80570D01*
X91075Y80279D01*
X91201Y79987D01*
X91263Y79716D01*
X91305Y79487D01*
X91346Y79279D01*
Y79154D01*
Y79133D01*
Y79112D01*
X91325Y78800D01*
X91284Y78508D01*
X91201Y78258D01*
X91117Y78050D01*
X91034Y77863D01*
X90950Y77738D01*
X90909Y77634D01*
X90888Y77613D01*
X90721Y77384D01*
X90513Y77196D01*
X90305Y77030D01*
X90117Y76884D01*
X89951Y76780D01*
X89805Y76717D01*
X89722Y76676D01*
X89680Y76655D01*
X89513Y76613D01*
X89326Y76550D01*
X89118Y76530D01*
X88868Y76488D01*
X88368Y76426D01*
X87868Y76405D01*
X87389Y76384D01*
X87181Y76363D01*
X84494D01*
Y81841D01*
X87097D01*
X87410Y81820D01*
D02*
G37*
G36*
X105301D02*
X105634D01*
X105926Y81799D01*
X106197Y81778D01*
X106426Y81757D01*
X106613D01*
X106801Y81737D01*
X106946Y81716D01*
X107071Y81695D01*
X107155Y81674D01*
X107238D01*
X107280Y81653D01*
X107321D01*
X107717Y81549D01*
X108071Y81403D01*
X108384Y81258D01*
X108633Y81112D01*
X108842Y80966D01*
X109008Y80841D01*
X109092Y80758D01*
X109133Y80737D01*
X109383Y80466D01*
X109612Y80175D01*
X109800Y79862D01*
X109946Y79571D01*
X110071Y79300D01*
X110175Y79071D01*
X110196Y79008D01*
X110216Y78946D01*
X110237Y78904D01*
Y78883D01*
X110300Y78654D01*
X110362Y78404D01*
X110466Y77842D01*
X110529Y77280D01*
X110591Y76738D01*
Y76467D01*
X110612Y76238D01*
Y76030D01*
X110633Y75842D01*
Y75676D01*
Y75572D01*
Y75488D01*
Y75468D01*
Y75072D01*
X110612Y74676D01*
X110591Y74322D01*
X110570Y73968D01*
X110550Y73655D01*
X110508Y73385D01*
X110466Y73114D01*
X110445Y72864D01*
X110404Y72656D01*
X110362Y72468D01*
X110321Y72322D01*
X110300Y72177D01*
X110279Y72073D01*
X110258Y72010D01*
X110237Y71968D01*
Y71947D01*
X110071Y71489D01*
X109904Y71114D01*
X109737Y70802D01*
X109571Y70531D01*
X109446Y70344D01*
X109321Y70198D01*
X109237Y70115D01*
X109217Y70094D01*
X108967Y69906D01*
X108717Y69740D01*
X108446Y69594D01*
X108196Y69469D01*
X107988Y69386D01*
X107821Y69323D01*
X107696Y69302D01*
X107675Y69282D01*
X107655D01*
X107509Y69261D01*
X107342Y69219D01*
X106988Y69177D01*
X106592Y69157D01*
X106197Y69136D01*
X105863Y69115D01*
X102406D01*
Y81841D01*
X104947D01*
X105301Y81820D01*
D02*
G37*
D15*
X146081Y224788D02*
G03*
X146025Y224789I-32J-252D01*
G01*
X36799Y250192D02*
G03*
X36855Y250191I32J252D01*
G01*
D20*
X15240Y492760D02*
G03*
X2540Y480060I0J-12700D01*
G01*
X180340D02*
G03*
X167640Y492760I-12700J0D01*
G01*
X121920Y462280D02*
Y492760D01*
X60960Y462280D02*
X121920D01*
X60960D02*
Y492760D01*
X2540Y162560D02*
X180340D01*
X2540D02*
Y457200D01*
Y480060D01*
X15240Y492760D02*
X147320D01*
X167640D01*
X180340Y162560D02*
Y480060D01*
X57940Y290360D02*
Y326860D01*
Y290360D02*
X124940D01*
Y326860D01*
X57940D02*
X124940D01*
D21*
X65190Y296160D02*
G03*
X65190Y296160I-1250J0D01*
G01*
D22*
X103978Y235994D02*
X117002D01*
X103978Y238986D02*
X117002D01*
X128778Y224790D02*
X143002D01*
X128778Y250190D02*
X143002D01*
X97790Y186690D02*
Y194310D01*
X85090Y186690D02*
Y194310D01*
X104140Y186690D02*
Y194310D01*
X116840Y186690D02*
Y194310D01*
X135890Y186690D02*
Y194310D01*
X123190Y186690D02*
Y194310D01*
X78740Y186690D02*
Y194310D01*
X66040Y186690D02*
Y194310D01*
X59690Y186690D02*
Y194310D01*
X46990Y186690D02*
Y194310D01*
X39878Y224790D02*
X54102D01*
X39878Y250190D02*
X54102D01*
X65878Y235994D02*
X78902D01*
X65878Y238986D02*
X78902D01*
X37938Y281714D02*
X50962D01*
X37938Y284706D02*
X50962D01*
X131918Y281714D02*
X144942D01*
X131918Y284706D02*
X144942D01*
D23*
X58420Y8890D02*
X129540D01*
X53340Y13970D02*
X58420Y8890D01*
X53340Y13970D02*
Y59690D01*
X129540Y8890D02*
Y59690D01*
X53340D02*
X129540D01*
X53340Y114300D02*
X129540D01*
X53340D02*
Y139700D01*
X129540Y114300D02*
Y139700D01*
X53340D02*
X129540D01*
D24*
X158750Y36830D02*
X163830D01*
X161290Y32512D02*
X163830Y36830D01*
X158750D02*
X161290Y32512D01*
X161798Y35052D02*
X162560Y35814D01*
X161036Y36322D02*
X161798Y34544D01*
X160782Y36068D02*
X163322Y36068D01*
X159766Y36830D02*
X161798Y33528D01*
X158750Y32004D02*
X163830D01*
X19050Y36830D02*
X24130D01*
X21590Y32512D02*
X24130Y36830D01*
X19050D02*
X21590Y32512D01*
X22098Y35052D02*
X22860Y35814D01*
X21336Y36322D02*
X22098Y34544D01*
X21082Y36068D02*
X23622D01*
X20066Y36830D02*
X22098Y33528D01*
X19050Y32004D02*
X24130D01*
X19050Y119380D02*
X24130D01*
X20066Y124206D02*
X22098Y120904D01*
X21082Y123444D02*
X23622Y123444D01*
X21336Y123698D02*
X22098Y121920D01*
Y122428D02*
X22860Y123190D01*
X19050Y124206D02*
X21590Y119888D01*
X24130Y124206D01*
X19050D02*
X24130D01*
D25*
X85090Y210820D02*
Y217168D01*
X88264D01*
X89322Y216110D01*
Y213994D01*
X88264Y212936D01*
X85090D01*
X87206D02*
X89322Y210820D01*
X91438Y216110D02*
X92496Y217168D01*
X94612D01*
X95670Y216110D01*
Y215052D01*
X94612Y213994D01*
X93554D01*
X94612D01*
X95670Y212936D01*
Y211878D01*
X94612Y210820D01*
X92496D01*
X91438Y211878D01*
X104140Y210820D02*
Y217168D01*
X107314D01*
X108372Y216110D01*
Y213994D01*
X107314Y212936D01*
X104140D01*
X106256D02*
X108372Y210820D01*
X113662D02*
Y217168D01*
X110488Y213994D01*
X114720D01*
X123190Y210820D02*
Y217168D01*
X126364D01*
X127422Y216110D01*
Y213994D01*
X126364Y212936D01*
X123190D01*
X125306D02*
X127422Y210820D01*
X133770Y217168D02*
X129538D01*
Y213994D01*
X131654Y215052D01*
X132712D01*
X133770Y213994D01*
Y211878D01*
X132712Y210820D01*
X130596D01*
X129538Y211878D01*
X66040Y210820D02*
Y217168D01*
X69214D01*
X70272Y216110D01*
Y213994D01*
X69214Y212936D01*
X66040D01*
X68156D02*
X70272Y210820D01*
X76620D02*
X72388D01*
X76620Y215052D01*
Y216110D01*
X75562Y217168D01*
X73446D01*
X72388Y216110D01*
X46990Y210820D02*
Y217168D01*
X50164D01*
X51222Y216110D01*
Y213994D01*
X50164Y212936D01*
X46990D01*
X49106D02*
X51222Y210820D01*
X53338D02*
X55454D01*
X54396D01*
Y217168D01*
X53338Y216110D01*
X142662Y87628D02*
X140546D01*
X141604D01*
Y82338D01*
X140546Y81280D01*
X139488D01*
X138430Y82338D01*
X149010Y81280D02*
X144778D01*
X149010Y85512D01*
Y86570D01*
X147952Y87628D01*
X145836D01*
X144778Y86570D01*
X127000Y259078D02*
X129116D01*
X128058D01*
Y252730D01*
X127000D01*
X129116D01*
X136522Y258020D02*
X135464Y259078D01*
X133348D01*
X132290Y258020D01*
Y253788D01*
X133348Y252730D01*
X135464D01*
X136522Y253788D01*
X141812Y252730D02*
Y259078D01*
X138638Y255904D01*
X142870D01*
X156210Y16508D02*
Y10160D01*
X159384D01*
X160442Y11218D01*
Y15450D01*
X159384Y16508D01*
X156210D01*
X162558Y15450D02*
X163616Y16508D01*
X165732D01*
X166790Y15450D01*
Y14392D01*
X165732Y13334D01*
X164674D01*
X165732D01*
X166790Y12276D01*
Y11218D01*
X165732Y10160D01*
X163616D01*
X162558Y11218D01*
X16510Y16508D02*
Y10160D01*
X19684D01*
X20742Y11218D01*
Y15450D01*
X19684Y16508D01*
X16510D01*
X27090Y10160D02*
X22858D01*
X27090Y14392D01*
Y15450D01*
X26032Y16508D01*
X23916D01*
X22858Y15450D01*
X16510Y102868D02*
Y96520D01*
X19684D01*
X20742Y97578D01*
Y101810D01*
X19684Y102868D01*
X16510D01*
X22858Y96520D02*
X24974D01*
X23916D01*
Y102868D01*
X22858Y101810D01*
X108372Y261830D02*
X107314Y262888D01*
X105198D01*
X104140Y261830D01*
Y257598D01*
X105198Y256540D01*
X107314D01*
X108372Y257598D01*
X113662Y256540D02*
Y262888D01*
X110488Y259714D01*
X114720D01*
X70272Y261830D02*
X69214Y262888D01*
X67098D01*
X66040Y261830D01*
Y257598D01*
X67098Y256540D01*
X69214D01*
X70272Y257598D01*
X72388Y261830D02*
X73446Y262888D01*
X75562D01*
X76620Y261830D01*
Y260772D01*
X75562Y259714D01*
X74504D01*
X75562D01*
X76620Y258656D01*
Y257598D01*
X75562Y256540D01*
X73446D01*
X72388Y257598D01*
X42332Y307550D02*
X41274Y308608D01*
X39158D01*
X38100Y307550D01*
Y303318D01*
X39158Y302260D01*
X41274D01*
X42332Y303318D01*
X44448Y302260D02*
X46564D01*
X45506D01*
Y308608D01*
X44448Y307550D01*
X136312D02*
X135254Y308608D01*
X133138D01*
X132080Y307550D01*
Y303318D01*
X133138Y302260D01*
X135254D01*
X136312Y303318D01*
X142660Y302260D02*
X138428D01*
X142660Y306492D01*
Y307550D01*
X141602Y308608D01*
X139486D01*
X138428Y307550D01*
X39370Y259078D02*
X41486D01*
X40428D01*
Y252730D01*
X39370D01*
X41486D01*
X48892Y258020D02*
X47834Y259078D01*
X45718D01*
X44660Y258020D01*
Y253788D01*
X45718Y252730D01*
X47834D01*
X48892Y253788D01*
X51008Y258020D02*
X52066Y259078D01*
X54182D01*
X55240Y258020D01*
Y256962D01*
X54182Y255904D01*
X53124D01*
X54182D01*
X55240Y254846D01*
Y253788D01*
X54182Y252730D01*
X52066D01*
X51008Y253788D01*
X53340Y341628D02*
X55456D01*
X54398D01*
Y335280D01*
X53340D01*
X55456D01*
X62862Y340570D02*
X61804Y341628D01*
X59688D01*
X58630Y340570D01*
Y336338D01*
X59688Y335280D01*
X61804D01*
X62862Y336338D01*
X64978Y335280D02*
X67094D01*
X66036D01*
Y341628D01*
X64978Y340570D01*
X142662Y157478D02*
X140546D01*
X141604D01*
Y152188D01*
X140546Y151130D01*
X139488D01*
X138430Y152188D01*
X144778Y151130D02*
X146894D01*
X145836D01*
Y157478D01*
X144778Y156420D01*
M02*
